<svg width="25" height="25" viewBox="0 0 25 25" fill="none" xmlns="http://www.w3.org/2000/svg">
<path d="M8.7619 16.6626V7.47396M12.3333 16.7205V12.1059M15.9048 16.7379V9.78994M6.38095 3.99998H18.2857C18.9172 3.99998 19.5228 4.24399 19.9693 4.67832C20.4158 5.11265 20.6667 5.70173 20.6667 6.31596V17.8959C20.6667 18.5101 20.4158 19.0992 19.9693 19.5335C19.5228 19.9678 18.9172 20.2118 18.2857 20.2118H6.38095C5.74948 20.2118 5.14388 19.9678 4.69736 19.5335C4.25085 19.0992 4 18.5101 4 17.8959V6.31596C4 5.70173 4.25085 5.11265 4.69736 4.67832C5.14388 4.24399 5.74948 3.99998 6.38095 3.99998V3.99998Z" stroke="#4D4D4F" stroke-width="1.5" stroke-linecap="round" stroke-linejoin="round"/>
</svg>
