<svg width="20" height="20" viewBox="0 0 20 20" fill="none" xmlns="http://www.w3.org/2000/svg">
<path d="M7.5 9.1665H5.83333V10.8332H7.5V9.1665ZM10.8333 9.1665H9.16667V10.8332H10.8333V9.1665ZM14.1667 9.1665H12.5V10.8332H14.1667V9.1665ZM15.8333 3.33317H15V1.6665H13.3333V3.33317H6.66667V1.6665H5V3.33317H4.16667C3.24167 3.33317 2.50833 4.08317 2.50833 4.99984L2.5 16.6665C2.5 17.5832 3.24167 18.3332 4.16667 18.3332H15.8333C16.75 18.3332 17.5 17.5832 17.5 16.6665V4.99984C17.5 4.08317 16.75 3.33317 15.8333 3.33317ZM15.8333 16.6665H4.16667V7.49984H15.8333V16.6665Z" fill="#898989"/>
</svg>
