<svg width="28" height="28" viewBox="0 0 28 28" xmlns="http://www.w3.org/2000/svg">
<path d="M8.66663 21.9998C7.19996 21.9998 6.01329 23.1998 6.01329 24.6665C6.01329 26.1332 7.19996 27.3332 8.66663 27.3332C10.1333 27.3332 11.3333 26.1332 11.3333 24.6665C11.3333 23.1998 10.1333 21.9998 8.66663 21.9998ZM0.666626 0.666504V3.33317H3.33329L8.13329 13.4532L6.33329 16.7198C6.11996 17.0932 5.99996 17.5332 5.99996 17.9998C5.99996 19.4665 7.19996 20.6665 8.66663 20.6665H24.6666V17.9998H9.22663C9.03996 17.9998 8.89329 17.8532 8.89329 17.6665L8.93329 17.5065L10.1333 15.3332H20.0666C21.0666 15.3332 21.9466 14.7865 22.4 13.9598L27.1733 5.3065C27.28 5.11984 27.3333 4.89317 27.3333 4.6665C27.3333 3.93317 26.7333 3.33317 26 3.33317H6.27996L5.02663 0.666504H0.666626ZM22 21.9998C20.5333 21.9998 19.3466 23.1998 19.3466 24.6665C19.3466 26.1332 20.5333 27.3332 22 27.3332C23.4666 27.3332 24.6666 26.1332 24.6666 24.6665C24.6666 23.1998 23.4666 21.9998 22 21.9998Z" />
</svg>
