<svg width="18" height="18" viewBox="0 0 18 18" fill="none" xmlns="http://www.w3.org/2000/svg">
<path d="M5.6665 13.1667V11.5001H12.3332V13.1667H5.6665ZM12.3332 7.33342L8.99984 10.6667L5.6665 7.33342H7.74984V4.00008H10.2498V7.33342H12.3332ZM8.99984 0.666748C13.5832 0.666748 17.3332 4.41675 17.3332 9.00008C17.3332 13.5834 13.5832 17.3334 8.99984 17.3334C4.4165 17.3334 0.666504 13.5834 0.666504 9.00008C0.666504 4.41675 4.4165 0.666748 8.99984 0.666748ZM8.99984 2.33341C5.3165 2.33341 2.33317 5.31675 2.33317 9.00008C2.33317 12.6834 5.3165 15.6667 8.99984 15.6667C12.6832 15.6667 15.6665 12.6834 15.6665 9.00008C15.6665 5.31675 12.6832 2.33341 8.99984 2.33341Z" fill="currentColor"/>
</svg>
