<svg width="18" height="15" viewBox="0 0 18 15" fill="none" xmlns="http://www.w3.org/2000/svg">
<path fill-rule="evenodd" clip-rule="evenodd" d="M16.92 2.16C17.2182 2.55765 17.1376 3.12177 16.74 3.42L11.16 7.605C9.87997 8.56499 8.12004 8.565 6.84001 7.60501L1.26 3.42005C0.862357 3.12182 0.781765 2.5577 1.08 2.16005C1.37823 1.7624 1.94235 1.68181 2.34 1.98004L7.91999 6.16499C7.91999 6.16499 7.91999 6.16499 7.91999 6.16499C8.56002 6.64499 9.43997 6.645 10.08 6.165C10.08 6.165 10.08 6.165 10.08 6.165L15.66 1.98C16.0576 1.68177 16.6218 1.76236 16.92 2.16Z" fill="white"/>
<path fill-rule="evenodd" clip-rule="evenodd" d="M2.7 1.8C2.20294 1.8 1.8 2.20294 1.8 2.7V11.7C1.8 12.1971 2.20294 12.6 2.7 12.6H15.3C15.7971 12.6 16.2 12.1971 16.2 11.7V2.7C16.2 2.20294 15.7971 1.8 15.3 1.8H2.7ZM0 2.7C0 1.20883 1.20883 0 2.7 0H15.3C16.7912 0 18 1.20883 18 2.7V11.7C18 13.1912 16.7912 14.4 15.3 14.4H2.7C1.20883 14.4 0 13.1912 0 11.7V2.7Z" fill="white"/>
</svg>
