<svg width="16" height="20" viewBox="0 0 16 20" xmlns="http://www.w3.org/2000/svg">
<path fill-rule="evenodd" clip-rule="evenodd" d="M8.99999 7H14.5L8.99999 1.5V7ZM1.99999 0H9.99999L16 6V18C16 18.5304 15.7893 19.0391 15.4142 19.4142C15.0391 19.7893 14.5304 20 14 20H1.99999C0.889992 20 -7.62939e-06 19.1 -7.62939e-06 18V2C-7.62939e-06 0.89 0.889992 0 1.99999 0ZM6.54999 16.17C6.46798 16.17 6.38597 16.194 6.31803 16.2139C6.26999 16.228 6.22899 16.24 6.19999 16.24L5.84999 14.7H4.79999L3.32999 15.89L3.74999 14H2.69999L1.99999 17.5H3.04999L5.07999 15.68L5.49999 17.29H6.19999L6.54999 17.22V16.17ZM8.35293 17.0498L11.7059 13.6969L10.3529 12.3439L6.99999 15.6969V17.0498H8.35293ZM13.3529 13.7557C13.5294 13.5792 13.7059 13.4027 13.7059 13.2263C13.7647 13.0498 13.5882 12.8733 13.4118 12.6969C13.2941 12.5792 13.1765 12.4616 13.1765 12.3439C13.1765 12.2263 13.2941 12.1086 13.4118 11.991C13.5294 11.8145 13.5294 11.5792 13.4118 11.4616L12.5882 10.638C12.4118 10.5204 12.1765 10.5204 12.0588 10.638L10.7647 11.8733L12.1176 13.2263L12.5294 12.8145L12.8823 13.1675L11.3529 14.6969L11.8823 15.2263L13.3529 13.7557Z" />
</svg>
