<svg xmlns="http://www.w3.org/2000/svg" width="64" height="64" viewBox="0 0 64 64" fill="none">
<path fill-rule="evenodd" clip-rule="evenodd" d="M17.6 28.8C21.3333 36.2667 27.7333 42.4 35.2 46.4L41.0667 40.5333C41.8667 39.7333 42.9333 39.4667 43.7333 40C46.6667 41.0667 49.8667 41.6 53.3333 41.6C54.9333 41.6 56 42.6667 56 44.2667V53.3333C56 54.9333 54.9333 56 53.3333 56C28.2667 56 8 35.7333 8 10.6667C8 9.06667 9.06667 8 10.6667 8H20C21.6 8 22.6667 9.06667 22.6667 10.6667C22.6667 13.8667 23.2 17.0667 24.2667 20.2667C24.5333 21.0667 24.2667 22.1333 23.7333 22.9333L17.6 28.8Z" fill="#32BCAD"/>
<path d="M45.9917 10.1667C41.3917 10.1667 37.6667 13.9 37.6667 18.5C37.6667 23.1 41.3917 26.8334 45.9917 26.8334C50.6001 26.8334 54.3334 23.1 54.3334 18.5C54.3334 13.9 50.6001 10.1667 45.9917 10.1667ZM46.0001 25.1667C42.3167 25.1667 39.3334 22.1834 39.3334 18.5C39.3334 14.8167 42.3167 11.8334 46.0001 11.8334C49.6834 11.8334 52.6667 14.8167 52.6667 18.5C52.6667 22.1834 49.6834 25.1667 46.0001 25.1667Z" fill="#EC008C"/>
<path d="M46.4167 14.3334H45.1667V19.3334L49.5417 21.9584L50.1667 20.9334L46.4167 18.7084V14.3334Z" fill="#EC008C"/>
</svg>
