<svg width="9" height="8" viewBox="0 0 9 8" fill="none" xmlns="http://www.w3.org/2000/svg">
<path d="M6.11144 7.97548C6.72691 7.94562 7.27251 7.80535 7.72318 7.35522C8.17384 6.90455 8.31411 6.35895 8.34398 5.74295C8.36638 5.34508 8.36904 4.94988 8.36904 4.55362V4.15628C8.36904 3.62561 8.37438 3.10028 8.34398 2.56962C8.31411 1.95362 8.17331 1.40802 7.72318 0.957348C7.27251 0.507215 6.72691 0.366948 6.11144 0.336548C5.58078 0.306681 5.05544 0.312015 4.52424 0.312015C3.99411 0.312015 3.46824 0.306681 2.93758 0.336548C2.32211 0.366948 1.77651 0.507215 1.32584 0.957348C0.875177 1.40802 0.73491 1.95362 0.705043 2.56962C0.685275 2.96574 0.676738 3.36234 0.679443 3.75895L0.679976 4.15628C0.679976 4.68695 0.674643 5.21228 0.705043 5.74295C0.73491 6.35895 0.87571 6.90455 1.32584 7.35522C1.77651 7.80535 2.32211 7.94562 2.93758 7.97548C3.46824 8.00588 3.99358 8.00055 4.52424 8.00055C5.05491 8.00055 5.58024 8.00588 6.11144 7.97548ZM2.25704 7.15468C2.09094 7.09099 1.94063 6.992 1.81651 6.86455C1.68887 6.74048 1.5897 6.59017 1.52584 6.42402C1.32584 5.91842 1.37118 4.71735 1.37118 4.15628C1.37118 3.59575 1.32584 2.39415 1.52584 1.88855C1.59624 1.71362 1.68104 1.58348 1.81651 1.44801C1.95144 1.31308 2.08158 1.22775 2.25704 1.15788C2.76264 0.957348 3.96371 1.00268 4.52424 1.00268C5.08531 1.00268 6.28638 0.957348 6.79198 1.15735C6.96744 1.22775 7.09758 1.31308 7.23251 1.44801C7.36798 1.58348 7.45278 1.71362 7.52318 1.88855C7.71144 2.36428 7.68264 3.45655 7.67838 4.05068V4.15628C7.67838 4.71681 7.72318 5.91842 7.52318 6.42402C7.45932 6.59017 7.36015 6.74048 7.23251 6.86455C7.10839 6.992 6.95809 7.09099 6.79198 7.15468C6.28638 7.35522 5.08531 7.30988 4.52424 7.30988C3.96424 7.30988 2.76264 7.35522 2.25704 7.15522V7.15468ZM6.57704 2.56428C6.63753 2.56442 6.69744 2.55261 6.75335 2.52953C6.80925 2.50645 6.86005 2.47255 6.90281 2.42979C6.94558 2.38702 6.97948 2.33622 7.00256 2.28032C7.02564 2.22441 7.03745 2.1645 7.03731 2.10401C7.03752 2.04349 7.02576 1.98352 7.00272 1.92755C6.97967 1.87158 6.94578 1.82072 6.903 1.7779C6.86023 1.73507 6.80941 1.70113 6.75347 1.67801C6.69753 1.6549 6.63757 1.64307 6.57704 1.64321C6.51647 1.643 6.45646 1.65478 6.40045 1.67786C6.34445 1.70094 6.29357 1.73488 6.25074 1.77771C6.20791 1.82054 6.17397 1.87142 6.15089 1.92742C6.12781 1.98343 6.11603 2.04344 6.11624 2.10401C6.11624 2.35895 6.32158 2.56428 6.57704 2.56428ZM4.52424 6.12855C4.78339 6.12897 5.04007 6.07825 5.27958 5.97929C5.51908 5.88033 5.73671 5.73507 5.91998 5.55186C6.10324 5.36864 6.24855 5.15105 6.34758 4.91157C6.4466 4.67209 6.49739 4.41543 6.49704 4.15628C6.49739 3.89714 6.4466 3.64047 6.34758 3.40099C6.24855 3.16151 6.10324 2.94393 5.91998 2.76071C5.73671 2.57749 5.51908 2.43224 5.27958 2.33328C5.04007 2.23432 4.78339 2.18359 4.52424 2.18401C4.26514 2.18366 4.00852 2.23444 3.76907 2.33343C3.52963 2.43242 3.31207 2.57768 3.12886 2.7609C2.94565 2.94411 2.80038 3.16167 2.70139 3.40111C2.6024 3.64056 2.55163 3.89718 2.55198 4.15628C2.55163 4.41538 2.6024 4.67201 2.70139 4.91145C2.80038 5.1509 2.94565 5.36846 3.12886 5.55167C3.31207 5.73488 3.52963 5.88014 3.76907 5.97913C4.00852 6.07813 4.26514 6.1289 4.52424 6.12855ZM4.52424 5.43788C4.18461 5.43718 3.85909 5.30191 3.61898 5.0617C3.37887 4.82149 3.24374 4.49592 3.24318 4.15628C3.24374 3.81665 3.37887 3.49107 3.61898 3.25086C3.85909 3.01066 4.18461 2.87539 4.52424 2.87468C4.86397 2.87525 5.18962 3.01045 5.42985 3.25068C5.67007 3.4909 5.80528 3.81655 5.80584 4.15628C5.80528 4.49601 5.67007 4.82166 5.42985 5.06189C5.18962 5.30211 4.86397 5.43732 4.52424 5.43788Z" fill="white"/>
</svg>
