<svg width="10" height="10" viewBox="0 0 10 10" fill="none" xmlns="http://www.w3.org/2000/svg">
<path d="M1.56214 2.70718C2.24641 2.70718 2.67521 2.25491 2.66881 1.68905C2.66347 1.11198 2.24641 0.671448 1.57387 0.671448C0.907208 0.671448 0.466675 1.11198 0.466675 1.68905C0.466675 2.25438 0.889075 2.70718 1.54987 2.70718H1.56214ZM5.58561 9.40958V6.11731C5.58561 5.93865 5.60374 5.76585 5.65121 5.63518C5.79414 5.28371 6.11521 4.92051 6.65707 4.92051C7.36534 4.92051 7.65121 5.46238 7.65121 6.25385V9.40905H9.60961V6.02771C9.60961 4.21865 8.64534 3.37331 7.35361 3.37331C6.33814 3.37331 5.86934 3.91465 5.60694 4.31571L5.58561 4.34825V3.51038H3.62721L3.62774 3.51998V3.53705C3.62987 3.61278 3.63467 3.87251 3.63681 4.63571V4.79518L3.63734 4.88051V5.15678L3.63787 5.25651V6.19838C3.63627 7.00691 3.63361 8.05385 3.62721 9.40905H5.58561V9.40958ZM2.54401 9.40958V3.51091H0.579741V9.40958H2.54401Z" fill="white"/>
</svg>
