<svg width="25" height="25" viewBox="0 0 25 25" xmlns="http://www.w3.org/2000/svg">
<g clip-path="url(#clip0_195_6399)">
<path d="M19.4445 20.8333H11.1111V15.2778H9.72224V20.8333H5.55558V15.2778H4.16669V20.8333C4.16669 21.2017 4.31302 21.555 4.57348 21.8154C4.83395 22.0759 5.18722 22.2222 5.55558 22.2222H19.4445C19.8128 22.2222 20.1661 22.0759 20.4266 21.8154C20.687 21.555 20.8334 21.2017 20.8334 20.8333V15.2778H19.4445V20.8333Z"/>
<path d="M23.4653 9.21527L20.6319 3.5486C20.5169 3.31721 20.3397 3.12247 20.1201 2.9863C19.9005 2.85012 19.6473 2.77791 19.3889 2.77777H5.61109C5.3527 2.77791 5.09947 2.85012 4.87987 2.9863C4.66027 3.12247 4.48302 3.31721 4.36803 3.5486L1.5347 9.21527C1.43796 9.40936 1.38802 9.62341 1.38887 9.84027V11.9792C1.38823 12.3037 1.50125 12.6182 1.70831 12.868C2.01432 13.2188 2.39227 13.4996 2.81646 13.6914C3.24065 13.8831 3.70114 13.9812 4.16664 13.9792C4.92621 13.9803 5.6626 13.7177 6.24998 13.2361C6.83734 13.718 7.57358 13.9813 8.33331 13.9813C9.09304 13.9813 9.82928 13.718 10.4166 13.2361C11.004 13.718 11.7402 13.9813 12.5 13.9813C13.2597 13.9813 13.9959 13.718 14.5833 13.2361C15.1707 13.718 15.9069 13.9813 16.6666 13.9813C17.4264 13.9813 18.1626 13.718 18.75 13.2361C19.4056 13.7745 20.2445 14.0376 21.0902 13.9703C21.9359 13.9029 22.7225 13.5103 23.2847 12.875C23.4943 12.6261 23.6098 12.3115 23.6111 11.9861V9.84027C23.6119 9.62341 23.562 9.40936 23.4653 9.21527ZM20.8333 12.5903C20.5367 12.5896 20.2445 12.518 19.9812 12.3815C19.7179 12.245 19.491 12.0475 19.3194 11.8055L18.75 11.0278L18.1875 11.8055C18.0127 12.0438 17.7842 12.2376 17.5206 12.3711C17.257 12.5047 16.9656 12.5742 16.6701 12.5742C16.3746 12.5742 16.0832 12.5047 15.8196 12.3711C15.556 12.2376 15.3276 12.0438 15.1528 11.8055L14.5833 11.0278L14.0208 11.8055C13.846 12.0438 13.6175 12.2376 13.3539 12.3711C13.0903 12.5047 12.799 12.5742 12.5034 12.5742C12.2079 12.5742 11.9166 12.5047 11.653 12.3711C11.3894 12.2376 11.1609 12.0438 10.9861 11.8055L10.4166 11.0278L9.85414 11.8055C9.67934 12.0438 9.45088 12.2376 9.18726 12.3711C8.92365 12.5047 8.63229 12.5742 8.33678 12.5742C8.04127 12.5742 7.74991 12.5047 7.4863 12.3711C7.22269 12.2376 6.99423 12.0438 6.81942 11.8055L6.24998 11.0278L5.68053 11.8055C5.50898 12.0475 5.28209 12.245 5.01875 12.3815C4.75541 12.518 4.46326 12.5896 4.16664 12.5903C3.90493 12.5935 3.64557 12.5406 3.40601 12.4352C3.16644 12.3297 2.95222 12.1743 2.77775 11.9792V9.84027L5.61109 4.16666H19.3889L22.2222 9.83333V11.9583C22.0488 12.1562 21.8352 12.3148 21.5958 12.4238C21.3563 12.5328 21.0964 12.5895 20.8333 12.5903V12.5903Z"/>
</g>
<defs>
<clipPath id="clip0_195_6399">
<rect width="25" height="25" fill="white"/>
</clipPath>
</defs>
</svg>
