<svg width="12" height="8" viewBox="0 0 12 8" fill="none" xmlns="http://www.w3.org/2000/svg">
<path d="M0 0H12V8H0V0ZM6 2C6.53043 2 7.03914 2.21071 7.41421 2.58579C7.78929 2.96086 8 3.46957 8 4C8 4.53043 7.78929 5.03914 7.41421 5.41421C7.03914 5.78929 6.53043 6 6 6C5.46957 6 4.96086 5.78929 4.58579 5.41421C4.21071 5.03914 4 4.53043 4 4C4 3.46957 4.21071 2.96086 4.58579 2.58579C4.96086 2.21071 5.46957 2 6 2ZM2.66667 1.33333C2.66667 1.68696 2.52619 2.02609 2.27614 2.27614C2.02609 2.52619 1.68696 2.66667 1.33333 2.66667V5.33333C1.68696 5.33333 2.02609 5.47381 2.27614 5.72386C2.52619 5.97391 2.66667 6.31305 2.66667 6.66667H9.33333C9.33333 6.31305 9.47381 5.97391 9.72386 5.72386C9.97391 5.47381 10.313 5.33333 10.6667 5.33333V2.66667C10.313 2.66667 9.97391 2.52619 9.72386 2.27614C9.47381 2.02609 9.33333 1.68696 9.33333 1.33333H2.66667Z" fill="#898989"/>
</svg>
