<svg width="40" height="40"  viewBox="0 0 340 337" fill="none" xmlns="http://www.w3.org/2000/svg">
<path fill-rule="evenodd" clip-rule="evenodd" d="M312.046 91.1855C311.794 90.9085 311.578 90.5595 311.29 90.2645L236.872 15.8355C232.395 11.3435 225.139 11.3435 220.679 15.8355C216.162 20.3195 216.162 27.5865 220.679 32.0245L252.381 63.8165V84.0625H229.451V106.993H285.462C302.339 106.993 316.095 120.706 316.095 137.644V282.506C316.095 287.538 314.854 292.213 312.687 296.431L117.547 101.267C113.062 96.7895 105.82 96.7895 101.329 101.267C96.8374 105.74 96.8374 112.997 101.329 117.474L295.357 311.497C292.233 312.56 288.91 313.161 285.462 313.161H140.6C123.701 313.161 109.923 299.394 109.923 282.506V229.399H98.4824H98.4674H86.9964V240.852V273.065V273.086V286.185C86.9964 287.243 87.1874 288.272 87.4754 289.305C87.8064 291.825 88.3034 294.323 89.0164 296.751L89.9014 307.664L98.7914 316.03C98.8274 316.073 98.9024 316.12 98.9534 316.188C108.8 328.321 123.792 336.088 140.6 336.088H285.462C299.11 336.088 311.549 330.905 321.03 322.432C321.3 322.202 321.606 322.015 321.847 321.763C321.912 321.695 321.984 321.583 322.063 321.468C332.486 311.703 339.047 297.861 339.047 282.506V137.644C339.047 117.794 328.12 100.46 312.046 91.1855Z" fill="#FFB003"/>
<path fill-rule="evenodd" clip-rule="evenodd" d="M229.452 84.064H140.598C129.206 84.064 118.682 87.653 110 93.729L41.9497 25.66C45.6597 24.112 49.7017 23.212 53.9497 23.212H198.801C215.703 23.212 229.452 36.979 229.452 53.867V84.064ZM229.452 198.732C229.452 215.635 215.703 229.398 198.801 229.398H109.925V137.643C109.925 129.947 112.826 122.908 117.501 117.494L117.548 117.476C117.548 117.455 117.58 117.455 117.58 117.4C123.228 111.03 131.405 106.995 140.598 106.995H229.452V198.732ZM86.9937 137.643V229.398H53.9497C37.0437 229.398 23.3197 215.635 23.3197 198.732V53.867C23.3197 49.634 24.1767 45.56 25.7457 41.877L94.4087 110.565C89.7327 118.488 86.9937 127.741 86.9937 137.643ZM198.801 0.284973H53.9497C40.1747 0.284973 27.6717 5.55797 18.1517 14.149C17.3737 14.603 16.5927 15.139 15.8877 15.837C15.2147 16.543 14.6567 17.288 14.1917 18.105C5.63968 27.607 0.338684 40.132 0.338684 53.867V198.732C0.338684 212.515 5.63968 225.036 14.1917 234.545C14.7497 235.445 15.3047 236.255 16.1037 236.992L90.8637 308.647V308.534C92.9007 310.334 95.5317 311.446 98.4647 311.446C104.789 311.446 109.925 306.354 109.925 300.008V252.329H198.801C228.347 252.329 252.383 228.275 252.383 198.732V53.867C252.383 24.324 228.347 0.284973 198.801 0.284973Z" fill="#FF434F"/>
</svg>
