<svg width="65" height="20" viewBox="0 0 65 20" fill="none" xmlns="http://www.w3.org/2000/svg">
<g clip-path="url(#clip0_575_114657)">
<path fill-rule="evenodd" clip-rule="evenodd" d="M0.44458 7.00806L5.84375 13.8189L0.44458 18.2929V7.00806Z" fill="#F15A23"/>
<path fill-rule="evenodd" clip-rule="evenodd" d="M2.61865 18.2926L6.68126 14.894L9.48923 18.2926H2.61865Z" fill="#F15A23"/>
<path fill-rule="evenodd" clip-rule="evenodd" d="M0.44458 3.36359L1.85356 5.1459L7.64677 12.385L9.52399 10.8901C9.52399 10.8901 7.96556 9.05536 6.91914 7.00799C4.87328 3.00513 6.3217 0.512939 6.3217 0.512939H0.44458V3.36359Z" fill="#F15A23"/>
<path fill-rule="evenodd" clip-rule="evenodd" d="M8.4729 13.5027L10.3847 11.9236C10.3847 11.9236 12.2106 14.3271 14.3278 14.8944C17.1023 15.6379 18.3307 13.819 18.3307 13.819V18.293H12.2368L13.6109 17.105C13.6109 17.105 12.894 17.5829 11.1406 16.3684C10.1057 15.6516 8.4729 13.5027 8.4729 13.5027Z" fill="#F15A23"/>
<path fill-rule="evenodd" clip-rule="evenodd" d="M8.6479 0.5C8.6479 0.5 8.038 1.33083 8.47214 3.36369C8.93617 5.53653 10.7816 7.83624 10.7773 7.78476C10.7773 7.78476 10.896 5.50125 12.236 4.1612C15.0923 1.30489 18.3299 3.00522 18.3299 3.00522V0.513036L8.6479 0.5Z" fill="#F15A23"/>
<path fill-rule="evenodd" clip-rule="evenodd" d="M18.3306 6.01645C18.3306 6.01645 16.5243 4.46924 14.9539 4.46924C12.9449 4.46924 11.8484 6.20362 11.8484 7.46172C11.8484 9.29424 12.728 10.3125 13.6108 11.1953C14.8796 12.4641 16.4231 13.8324 18.3306 12.7311C18.3306 10.6467 18.3306 6.01645 18.3306 6.01645Z" fill="#F15A23"/>
<path fill-rule="evenodd" clip-rule="evenodd" d="M38.9006 0.686523H43.1631C43.1631 0.686523 46.9392 6.40398 48.7949 8.7662C50.6507 11.1284 52.6482 13.819 52.6482 13.819C52.6482 13.819 52.6482 6.0165 52.6482 1.96694C52.6482 1.45506 51.3041 0.686523 51.3041 0.686523H56.2195C56.2195 0.686523 54.6066 1.34915 54.6066 1.96694C54.6066 7.00821 54.6066 19.209 54.6066 19.209C54.6066 19.209 53.0591 18.3508 51.3041 16.3116C49.3324 14.0204 42.3183 4.77021 42.3183 4.77021C42.3183 4.77021 42.3183 13.5027 42.3183 16.7513C42.3183 17.3649 43.6624 18.293 43.6624 18.293H38.9006C38.9006 18.293 40.2063 17.3574 40.2063 16.7513C40.2063 12.3852 40.2063 6.0165 40.2063 1.96694C40.2063 1.42285 38.9006 0.686523 38.9006 0.686523Z" fill="#005E6A"/>
<path fill-rule="evenodd" clip-rule="evenodd" d="M58.9736 0.686523H64.4443C64.4443 0.686523 62.9753 1.38234 62.9753 1.96694C62.9753 6.0165 62.9753 12.7311 62.9753 16.7513C62.9753 17.3902 64.4443 18.293 64.4443 18.293H58.9736C58.9736 18.293 60.3413 17.3696 60.3413 16.7513C60.3413 11.9236 60.3413 6.0165 60.3413 1.96694C60.3413 1.4049 58.9736 0.686523 58.9736 0.686523Z" fill="#005E6A"/>
<path fill-rule="evenodd" clip-rule="evenodd" d="M22.8059 0.686523C22.8059 0.686523 24.2242 1.39371 24.2242 1.96694C24.2242 6.0165 24.2242 11.9236 24.2242 16.7513C24.2242 17.3798 22.8059 18.293 22.8059 18.293C22.8059 18.293 29.8914 18.293 30.9106 18.293C31.4171 18.293 37.0904 17.3653 37.0904 12.9915C37.0904 8.61767 32.6834 8.20812 32.6834 8.20812C32.6834 8.20812 35.3681 7.46177 35.3681 4.46929C35.3681 1.24372 31.4171 0.686523 30.9106 0.686523C29.8579 0.686523 22.8059 0.686523 22.8059 0.686523ZM27.1115 7.91826V2.41393C27.1115 2.41393 29.4607 2.41393 30.404 2.41393C30.9106 2.41393 32.6834 3.00535 32.6834 5.1996C32.6834 7.00821 30.9106 7.91826 30.404 7.91826C29.2556 7.91826 27.1115 7.91826 27.1115 7.91826ZM27.1115 9.36192C27.1115 9.36192 30.404 9.36192 30.9106 9.36192C31.4171 9.36192 34.4057 10.1382 34.4057 12.7311C34.4057 15.3747 31.4171 16.3116 30.9106 16.3116C30.404 16.3116 27.1115 16.3116 27.1115 16.3116V9.36192Z" fill="#005E6A"/>
</g>
<defs>
<clipPath id="clip0_575_114657">
<rect width="64" height="19" fill="white" transform="translate(0.333252 0.5)"/>
</clipPath>
</defs>
</svg>
