<svg width="65" height="20" viewBox="0 0 65 20" fill="none" xmlns="http://www.w3.org/2000/svg">
<g clip-path="url(#clip0_575_114679)">
<path fill-rule="evenodd" clip-rule="evenodd" d="M17.9424 16.8305C16.0133 18.6873 13.425 19.6939 10.6298 19.6939C7.79719 19.6939 5.20893 18.6873 3.27896 16.8305C2.34358 15.9268 1.60048 14.8434 1.09429 13.6453C0.588099 12.4473 0.329253 11.1593 0.333299 9.85865C0.333299 7.19891 1.39719 4.69543 3.28893 2.88515C5.21724 1.02998 7.8055 0.0234375 10.639 0.0234375C13.4342 0.0234375 16.0224 1.02998 17.9524 2.88681C19.8441 4.69627 20.9072 7.19974 20.9072 9.85948C20.9072 12.5192 19.835 15.0127 17.9424 16.8313M10.6398 3.20931C6.94109 3.20931 4.15501 6.07185 4.15501 9.85865C4.15501 13.6446 6.95023 16.508 10.6398 16.508C14.2919 16.508 17.0872 13.6446 17.0872 9.85865C17.0872 6.07185 14.2919 3.20931 10.6398 3.20931ZM42.2441 2.32245L34.3189 19.9249L33.8676 19.8418C31.6085 19.4345 31.1572 18.8718 30.0933 16.5811L24.1737 3.69803H21.952V0.55871H30.3659V3.69803H28.352L33.1146 14.3744L37.7259 3.69803H35.2607V0.55871H42.2441V2.32245ZM61.3776 16.8305C59.4493 18.6873 56.8602 19.6939 54.065 19.6939C51.2324 19.6939 48.6441 18.6873 46.7141 16.8305C44.8224 15.021 43.7593 12.5184 43.7593 9.85865C43.7593 7.19891 44.8232 4.69543 46.7141 2.88515C48.6441 1.02998 51.2324 0.0234375 54.065 0.0234375C56.8602 0.0234375 59.4485 1.02998 61.3776 2.88681C63.2694 4.69543 64.3333 7.19891 64.3333 9.85865C64.3333 12.5184 63.2694 15.0119 61.3776 16.8305ZM54.065 3.20931C50.3663 3.20931 47.5802 6.07185 47.5802 9.85865C47.5802 13.6446 50.3754 16.508 54.065 16.508C57.7172 16.508 60.5124 13.6446 60.5124 9.85865C60.5124 6.07185 57.7263 3.20931 54.065 3.20931Z" fill="#06B3BA"/>
</g>
<defs>
<clipPath id="clip0_575_114679">
<rect width="64" height="20" fill="white" transform="translate(0.333252)"/>
</clipPath>
</defs>
</svg>
