<svg width="64" height="31" viewBox="0 0 64 31" xmlns="http://www.w3.org/2000/svg">
<path d="M9.40773 15.7249C9.40773 14.9228 9.40773 12.7855 9.40773 12.5261C9.43604 9.34139 7.07703 7.10504 5.66162 7.27017C5.14093 7.26864 4.63294 7.43092 4.20957 7.73405C3.78621 8.03718 3.46891 8.4658 3.30261 8.95923C2.8827 10.068 3.26486 11.5353 4.6614 11.8844C6.16173 12.2571 7.02041 12.5591 7.6715 12.9979C8.10492 13.3105 8.45882 13.7206 8.70468 14.1951C8.95053 14.6696 9.08146 15.1952 9.08691 15.7296L9.40773 15.7249Z" fill="#003399"/>
<path d="M8.77997 15.7303C8.77707 15.2496 8.65537 14.7771 8.42571 14.3548C8.19605 13.9326 7.86556 13.5736 7.46364 13.31C6.80312 12.8759 5.91141 12.5975 4.47241 12.2295C4.26024 12.1915 4.05782 12.1114 3.87712 11.9939C3.69641 11.8764 3.54108 11.7239 3.42029 11.5454C3.03813 11.9276 2.94849 12.7863 3.03813 13.2911C3.12682 13.7105 3.34726 14.0905 3.66726 14.3757C3.98726 14.6609 4.39005 14.8363 4.81683 14.8763C5.4194 14.8712 6.01938 14.7968 6.60496 14.6546C7.26076 14.5178 8.29873 14.9235 8.45914 15.7256L8.77997 15.7303Z" fill="#003399"/>
<path fill-rule="evenodd" clip-rule="evenodd" d="M2.21275 18.2491C1.04523 15.7889 0.431614 13.1026 0.415186 10.3795C0.419683 7.69642 1.02758 5.04875 2.19388 2.63246C4.62081 1.48233 7.2741 0.889132 9.95975 0.896228C12.6825 0.936972 15.3623 1.58154 17.8058 2.78344C18.9895 5.23976 19.6177 7.92661 19.6459 10.6531C19.6265 13.3366 19.0075 15.9819 17.8341 18.3954C15.3917 19.5437 12.7247 20.1351 10.0258 20.1269C7.3145 20.0875 4.64583 19.4461 2.21275 18.2491ZM1.88721 18.603C0.665929 16.0423 0.0216953 13.2447 0 10.4078C0.00277534 7.60412 0.636494 4.83704 1.85418 2.31164C4.38798 1.1133 7.15688 0.494411 9.95975 0.499914C12.7996 0.543313 15.5948 1.21351 18.1455 2.46261C19.3781 5.02724 20.032 7.8314 20.061 10.6767C20.0432 13.4763 19.3984 16.2363 18.1738 18.754C15.6277 19.9499 12.8483 20.567 10.0352 20.561C7.20812 20.5167 4.42574 19.8481 1.88721 18.603Z" fill="#003399"/>
<path d="M9.93555 2.31689C8.1946 2.31689 6.69427 3.46809 6.69899 5.44966C6.69899 7.11984 8.04362 8.01155 8.52486 8.64848C9.25144 9.59209 9.63832 10.748 9.68078 12.4937C9.7138 13.8761 9.7138 15.2443 9.71852 15.735H10.1007C10.1007 15.2207 10.1007 13.7675 10.1007 12.4323C10.0485 11.079 10.4577 9.74809 11.2613 8.65792C11.7331 8.02099 13.0778 7.12928 13.0872 5.4591C13.0872 3.47753 11.5916 2.32633 9.85063 2.32633" fill="#003399"/>
<path d="M10.3794 15.7253C10.3794 14.9233 10.3794 12.786 10.3794 12.5265C10.3794 9.34185 12.6771 7.10079 14.1538 7.27064C14.6674 7.27724 15.1663 7.44334 15.5813 7.74595C15.9963 8.04856 16.307 8.47271 16.4704 8.95969C16.8903 10.0684 16.5128 11.5357 15.1116 11.8849C13.6112 12.2576 12.7526 12.5595 12.1015 12.9983C11.6731 13.3131 11.325 13.7246 11.0857 14.1993C10.8463 14.674 10.7223 15.1984 10.7238 15.7301L10.3794 15.7253Z" fill="#003399"/>
<path d="M11.0022 15.7303C11.0042 15.25 11.125 14.7776 11.3538 14.3553C11.5827 13.933 11.9125 13.5739 12.3138 13.31C12.979 12.8759 13.8708 12.5975 15.305 12.2295C15.5176 12.1928 15.7206 12.1133 15.9014 11.9957C16.0823 11.8781 16.2374 11.7249 16.3572 11.5454C16.7393 11.9276 16.829 12.7863 16.744 13.2911C16.6537 13.7105 16.4322 14.0903 16.1115 14.3753C15.7909 14.6603 15.3877 14.8358 14.9606 14.8763C14.3534 14.8716 13.7486 14.7972 13.1583 14.6546C12.5025 14.5178 11.4693 14.9235 11.2994 15.7256L11.0022 15.7303Z" fill="#003399"/>
<path d="M11.5393 19.0374L11.3223 17.4144L11.8648 17.3342C11.9264 17.3209 11.9902 17.3216 12.0514 17.3363C12.1127 17.351 12.1699 17.3793 12.2187 17.4191C12.2805 17.4957 12.3168 17.5897 12.3225 17.688C12.3373 17.7618 12.3279 17.8385 12.2955 17.9065C12.2632 17.9745 12.2098 18.0303 12.1432 18.0655C12.3178 18.0655 12.4216 18.1928 12.4499 18.4052C12.4624 18.4865 12.4624 18.5692 12.4499 18.6505C12.4168 18.8628 12.2895 18.9289 12.0677 18.9572L11.5393 19.0374ZM11.8837 18.7449C11.9457 18.7426 12.0066 18.7282 12.063 18.7024C12.1385 18.6552 12.1338 18.5467 12.1196 18.4618C12.096 18.2872 12.0488 18.2212 11.8601 18.2495H11.7422L11.8177 18.7213L11.8837 18.7449ZM11.7941 17.9947C11.8696 17.9947 11.9639 17.9947 12.0017 17.9098C12.0358 17.8566 12.0476 17.7923 12.0347 17.7305C12.0111 17.6078 11.9686 17.537 11.8224 17.5653H11.6808L11.7375 17.9853L11.7941 17.9947Z" fill="#003399"/>
<path d="M13.8669 18.06V18.1543C13.9047 18.4516 13.8669 18.6969 13.5178 18.763C13.046 18.8573 12.9328 18.5507 12.8478 18.126L12.8007 17.8949C12.7393 17.4844 12.7393 17.173 13.2111 17.0786C13.267 17.0617 13.3259 17.0571 13.3838 17.0651C13.4417 17.073 13.4971 17.0934 13.5464 17.1247C13.5957 17.1561 13.6376 17.1977 13.6693 17.2467C13.701 17.2958 13.7217 17.3511 13.7301 17.4089C13.7433 17.4476 13.7543 17.487 13.7631 17.5269L13.4659 17.5882C13.4329 17.4891 13.3904 17.3051 13.2583 17.3193C13.0177 17.3476 13.0979 17.6448 13.1215 17.7911L13.2111 18.2393C13.2347 18.3667 13.2866 18.5837 13.4942 18.5459C13.7018 18.5082 13.5886 18.2487 13.5744 18.1449L13.8669 18.06Z" fill="#003399"/>
<path d="M14.3388 18.5511L14.2397 16.8715L14.6361 16.7535L15.4617 18.2114L15.1503 18.3058L14.9522 17.9566L14.6078 18.0604L14.6549 18.4803L14.3388 18.5511ZM14.5794 17.7632L14.8295 17.6924L14.4945 17.013L14.5794 17.7585V17.7632Z" fill="#003399"/>
<path d="M4.57248 17.2824C4.69515 16.8861 4.80366 16.5936 5.27546 16.721C5.53024 16.7965 5.68593 16.9097 5.68121 17.1928C5.67363 17.2597 5.66101 17.3259 5.64347 17.3909L5.34623 17.3107C5.3887 17.1456 5.40757 17.0182 5.21413 16.9569C5.02069 16.8956 4.92633 17.1739 4.8933 17.2966L4.77535 17.7354C4.73761 17.8675 4.69043 18.0845 4.8933 18.1364C5.09618 18.1883 5.16695 18.0184 5.22356 17.7778L5.02069 17.7212L5.08674 17.4712L5.55854 17.6269L5.32736 18.4714L5.11977 18.4289L5.19054 18.2402C5.15645 18.2972 5.10528 18.3419 5.04431 18.3682C4.98334 18.3944 4.91565 18.4008 4.85084 18.3865C4.37904 18.2543 4.41678 17.9382 4.53473 17.5136L4.57248 17.2824Z" fill="#003399"/>
<path d="M6.37048 17.9994L6.22423 18.6882L5.89868 18.6174L6.2431 17.0133L6.80454 17.136C7.1348 17.2067 7.23388 17.353 7.1867 17.6502C7.15839 17.8295 7.07347 18.0088 6.86588 17.9947C7.04044 18.056 7.05932 18.1409 7.02629 18.2966C7.02629 18.3627 6.92249 18.7684 6.98383 18.8156V18.8675L6.64885 18.7778C6.64483 18.6376 6.66234 18.4976 6.70075 18.3627C6.70075 18.2683 6.74793 18.1315 6.65357 18.0796C6.59075 18.0508 6.52394 18.0317 6.45541 18.023L6.37048 17.9994ZM6.4271 17.7493L6.64885 17.8107C6.78095 17.8107 6.85644 17.7588 6.88003 17.5983C6.90362 17.4379 6.88003 17.3907 6.75736 17.3672L6.51674 17.3153L6.4271 17.7493Z" fill="#003399"/>
<path d="M8.49349 17.3665L8.81903 17.4043L8.67277 18.5366C8.61144 18.8952 8.4699 19.0556 8.07358 19.0084C7.67727 18.9612 7.57347 18.7725 7.60178 18.4139L7.7386 17.2816L8.06415 17.3194L7.90845 18.4281C7.90845 18.5508 7.86599 18.73 8.0783 18.7442C8.29061 18.7584 8.3142 18.6404 8.33307 18.4847L8.49349 17.3665Z" fill="#003399"/>
<path d="M9.15332 19.0659L9.2524 17.4429L9.87518 17.4759C10.1677 17.4759 10.2479 17.726 10.2385 17.9477C10.2382 18.0201 10.2225 18.0917 10.1924 18.1576C10.1623 18.2235 10.1185 18.2822 10.0639 18.3299C9.96086 18.3933 9.83995 18.4215 9.71948 18.4101H9.51189L9.47415 19.0895L9.15332 19.0659ZM9.52604 18.1647H9.68646C9.82328 18.1647 9.91292 18.1175 9.92236 17.9194C9.93179 17.7212 9.85631 17.7024 9.68646 17.6929H9.55435L9.52604 18.1647Z" fill="#003399"/>
<path d="M53.087 3.88224L50.61 8.3738C49.6243 7.53231 48.3722 7.06757 47.0762 7.06218C43.6368 7.06218 42.2355 9.62879 42.2355 11.4405C42.2355 12.7804 43.1131 14.7431 46.1798 14.7431C47.4631 14.7431 49.2937 13.8467 49.8221 13.4362L47.3734 18.6544C46.543 18.8742 45.6927 19.0101 44.8351 19.0601C39.3481 19.2253 37.1306 15.8519 37.1306 12.4124C37.1306 7.85953 41.1881 2.32057 47.8924 2.32057C48.3552 2.34721 48.8107 2.44755 49.2418 2.6178L49.6711 2.0658L53.087 3.88224Z" fill="#003399"/>
<path d="M63.3028 2.22217L64.001 18.556H58.7876V15.7535H55.2302L54.0554 18.556H48.3938L54.3055 6.89301H52.9703L55.5086 2.2316L63.3028 2.22217ZM58.7499 7.21856L56.7353 11.9743H58.8065L58.7499 7.21856Z" fill="#003399"/>
<path d="M33.8387 2.22225C36.4242 2.22225 37.8868 3.63765 37.8868 5.67112C37.8868 7.53474 36.344 9.18605 34.6502 10.04C36.3912 10.6864 36.5374 12.2575 36.5374 13.3662C36.5374 16.0461 33.8434 18.556 30.3427 18.556H22.7136L25.6907 7.05822H24.4687L26.9693 2.23168C26.9693 2.23168 31.7392 2.21281 33.8387 2.22225ZM31.3099 8.82748C31.6865 8.87283 32.0669 8.78161 32.382 8.57037C32.6972 8.35914 32.9261 8.04191 33.0272 7.67628C33.282 6.55339 32.395 6.52509 31.9704 6.52509H30.4512L29.9228 8.85579L31.3099 8.82748ZM29.1632 11.7149L28.4602 14.4183H30.2483C30.9513 14.4183 31.9091 14.0692 32.1355 13.1917C32.1878 13.0182 32.1977 12.8348 32.1644 12.6568C32.1311 12.4788 32.0556 12.3113 31.9442 12.1685C31.8329 12.0257 31.6888 11.9117 31.5243 11.836C31.3597 11.7604 31.1794 11.7253 30.9985 11.7338L29.1632 11.7149Z" fill="#003399"/>
<path d="M7.37487 29.0623C7.39793 29.1319 7.41683 29.2028 7.43149 29.2746C7.43541 29.2944 7.43491 29.3148 7.43002 29.3344C7.42512 29.354 7.41596 29.3722 7.40318 29.3878C7.36045 29.4182 7.30937 29.4347 7.25692 29.435H6.97856H6.68604C6.63176 29.4343 6.57781 29.4264 6.52563 29.4114C6.49676 29.4052 6.47044 29.3904 6.45014 29.369C6.43385 29.3441 6.42115 29.3171 6.4124 29.2888L6.09629 28.3452H4.31759L4.02036 29.2888C4.01156 29.3186 3.99887 29.3472 3.98261 29.3737C3.96184 29.3998 3.93401 29.4195 3.90241 29.4303C3.85475 29.4447 3.80574 29.4542 3.75615 29.4586H3.50137H3.23717C3.18904 29.4544 3.14316 29.4364 3.10506 29.4067C3.09648 29.3874 3.09204 29.3665 3.09204 29.3454C3.09204 29.3242 3.09648 29.3033 3.10506 29.284C3.11507 29.2148 3.13247 29.1467 3.15696 29.0812L4.61483 24.8821C4.63015 24.8481 4.64748 24.815 4.66673 24.783C4.69236 24.7558 4.72502 24.7362 4.76109 24.7264C4.81948 24.7098 4.87969 24.7003 4.94037 24.6981H5.58202C5.64893 24.7001 5.71539 24.7096 5.78018 24.7264C5.81944 24.7351 5.85544 24.7547 5.88398 24.783C5.90675 24.818 5.92424 24.8562 5.93588 24.8963L7.37487 29.0623ZM5.19043 25.5945L4.5299 27.6044H5.87454L5.19043 25.5945Z" fill="#003399"/>
<path d="M8.90263 29.2799C8.90195 29.3039 8.89369 29.327 8.87904 29.346C8.85961 29.3685 8.8329 29.3835 8.80355 29.3884C8.7596 29.4046 8.71349 29.4141 8.66673 29.4167H8.44026H8.21852C8.17027 29.4137 8.12265 29.4042 8.07697 29.3884C8.04848 29.3812 8.02242 29.3666 8.00149 29.346C7.99462 29.3245 7.99462 29.3014 8.00149 29.2799V24.4911C7.99462 24.4696 7.99462 24.4465 8.00149 24.4251C8.02335 24.4046 8.04899 24.3886 8.07697 24.3779C8.12304 24.3625 8.17042 24.3515 8.21852 24.3448H8.44026H8.66673C8.7134 24.3508 8.75928 24.3619 8.80355 24.3779C8.83266 24.3862 8.85883 24.4025 8.87904 24.4251C8.89369 24.444 8.90195 24.4671 8.90263 24.4911V29.2799Z" fill="#003399"/>
<path d="M14.8094 26.0294C14.8113 26.0624 14.8113 26.0955 14.8094 26.1285L14.7669 26.2983L13.8988 29.2471C13.8878 29.2837 13.872 29.3186 13.8517 29.3509C13.8272 29.3772 13.7963 29.3967 13.762 29.4075C13.7055 29.4262 13.6468 29.4373 13.5874 29.4405H13.2996H13.0071C12.9464 29.4384 12.8862 29.4289 12.8278 29.4122C12.7934 29.3994 12.7627 29.3783 12.7382 29.3509C12.7142 29.3225 12.698 29.2883 12.691 29.2518L12.1437 27.2703V27.2372V27.2703L11.6389 29.2518C11.6315 29.2888 11.617 29.324 11.5964 29.3556C11.5717 29.3839 11.5387 29.4037 11.5021 29.4122C11.444 29.4308 11.3837 29.4419 11.3228 29.4453H11.0303H10.7378C10.6786 29.4432 10.62 29.4337 10.5632 29.417C10.5275 29.4039 10.4952 29.383 10.4688 29.3556C10.4482 29.3257 10.4338 29.2921 10.4264 29.2565L9.56297 26.3078C9.54386 26.2541 9.52965 26.1989 9.5205 26.1426C9.5205 26.1002 9.5205 26.0672 9.5205 26.0389C9.51367 26.019 9.51367 25.9974 9.5205 25.9775C9.53993 25.955 9.56664 25.94 9.59599 25.9351C9.64201 25.9205 9.68947 25.9111 9.73753 25.9067H10.2093C10.2574 25.9111 10.3049 25.9205 10.3509 25.9351C10.363 25.9472 10.3726 25.9617 10.3792 25.9775C10.393 26.0013 10.4041 26.0267 10.4122 26.053L11.0586 28.4498V28.4922V28.4498L11.6672 26.053C11.6733 26.026 11.6845 26.0003 11.7002 25.9775C11.7199 25.9566 11.7441 25.9405 11.771 25.9303C11.8154 25.9158 11.8613 25.9063 11.9078 25.902H12.1249H12.3466C12.3905 25.8977 12.4348 25.8977 12.4787 25.902C12.5059 25.9115 12.5303 25.9277 12.5495 25.9492C12.5642 25.9674 12.5754 25.9882 12.5825 26.0105L13.2289 28.4215V28.4639V28.4215L13.8517 26.0247C13.8561 25.9979 13.8657 25.9723 13.88 25.9492C13.8989 25.9252 13.9256 25.9085 13.9554 25.902C14 25.8879 14.0458 25.8785 14.0923 25.8737H14.5358C14.5822 25.8785 14.6281 25.8879 14.6726 25.902C14.6859 25.9042 14.6986 25.9091 14.71 25.9164C14.7214 25.9237 14.7311 25.9333 14.7386 25.9445C14.7579 25.9494 14.7751 25.9603 14.7878 25.9755C14.8005 25.9907 14.808 26.0096 14.8094 26.0294Z" fill="#003399"/>
<path d="M18.0986 29.3084C18.0993 29.3238 18.0963 29.3392 18.0897 29.3532C18.0831 29.3672 18.0732 29.3793 18.0608 29.3886C18.0291 29.4154 17.9891 29.4304 17.9476 29.431C17.8691 29.4375 17.7902 29.4375 17.7117 29.431C17.6332 29.4378 17.5543 29.4378 17.4758 29.431C17.4356 29.4305 17.3971 29.4154 17.3673 29.3886C17.3571 29.378 17.3494 29.3653 17.3445 29.3515C17.3396 29.3377 17.3377 29.323 17.339 29.3084V29.0489C17.2059 29.1924 17.0455 29.3079 16.8671 29.3886C16.6881 29.4701 16.493 29.5104 16.2963 29.5065C16.1365 29.5092 15.9773 29.4869 15.8245 29.4405C15.6867 29.3978 15.5586 29.3289 15.447 29.2376C15.34 29.1488 15.2558 29.0355 15.2017 28.9073C15.1368 28.7588 15.1061 28.5975 15.112 28.4355C15.1107 28.2714 15.1496 28.1094 15.2253 27.9637C15.3017 27.8196 15.4159 27.6989 15.5555 27.6146C15.7268 27.5088 15.9152 27.4338 16.1123 27.3929C16.3644 27.3469 16.6203 27.3248 16.8766 27.3268H17.1927V27.1286C17.1942 27.0382 17.1847 26.9479 17.1644 26.8597C17.1443 26.7885 17.1088 26.7224 17.0606 26.6663C17.0075 26.6142 16.9428 26.5754 16.8719 26.553C16.7748 26.5282 16.6748 26.5171 16.5746 26.52C16.436 26.5171 16.2977 26.5346 16.1642 26.5719C16.0546 26.6017 15.9473 26.6395 15.8433 26.6851C15.7636 26.7172 15.6864 26.7551 15.6122 26.7984C15.5662 26.8258 15.5145 26.8419 15.4612 26.8456C15.4385 26.8547 15.4131 26.8547 15.3904 26.8456C15.3683 26.824 15.3507 26.7984 15.3385 26.7701C15.3224 26.7343 15.3128 26.696 15.3102 26.6568C15.3051 26.6051 15.3051 26.5529 15.3102 26.5011C15.304 26.4415 15.304 26.3815 15.3102 26.3219C15.3256 26.2782 15.3497 26.2381 15.381 26.2039C15.4365 26.1501 15.5002 26.1055 15.5697 26.0718C15.6659 26.0256 15.7652 25.9862 15.8669 25.9539C15.9905 25.9152 16.1166 25.8852 16.2444 25.8642C16.3831 25.8409 16.5236 25.8299 16.6643 25.8312C16.8853 25.8265 17.1059 25.8519 17.3201 25.9067C17.4841 25.9451 17.6363 26.0228 17.7636 26.1331C17.883 26.2423 17.9724 26.3805 18.0231 26.5342C18.079 26.7224 18.1061 26.9181 18.1033 27.1145L18.0986 29.3084ZM17.1927 27.893H16.8436C16.7155 27.8929 16.5876 27.904 16.4614 27.926C16.3714 27.9441 16.2852 27.9776 16.2066 28.0251C16.1461 28.0651 16.0973 28.1204 16.0651 28.1855C16.0318 28.2512 16.0156 28.3242 16.0179 28.3978C16.0146 28.4573 16.0242 28.5168 16.0462 28.5722C16.0682 28.6277 16.102 28.6776 16.1453 28.7186C16.247 28.8027 16.3769 28.8449 16.5086 28.8366C16.6335 28.8372 16.756 28.8028 16.8624 28.7375C16.9871 28.6597 17.0985 28.5625 17.1927 28.4497V27.893Z" fill="#003399"/>
<path d="M20.7587 29.4258L20.3671 30.577C20.3501 30.6118 20.3249 30.642 20.2937 30.665C20.2625 30.688 20.2261 30.7031 20.1878 30.7091C20.0472 30.742 19.9028 30.7563 19.7585 30.7515C19.68 30.7574 19.6011 30.7574 19.5226 30.7515C19.4764 30.7453 19.4317 30.7309 19.3905 30.7091C19.3781 30.7013 19.3674 30.6909 19.3593 30.6787C19.3512 30.6665 19.3457 30.6528 19.3433 30.6383C19.3354 30.6026 19.3354 30.5655 19.3433 30.5298L19.8151 29.4258C19.7826 29.4077 19.7538 29.3837 19.7302 29.355C19.7069 29.3264 19.6878 29.2946 19.6736 29.2606L18.546 26.26C18.5193 26.1987 18.5033 26.1332 18.4988 26.0665C18.5017 26.0325 18.5167 26.0007 18.5412 25.9769C18.5866 25.9475 18.6384 25.9297 18.6922 25.925C18.7833 25.919 18.8747 25.919 18.9659 25.925H19.2159C19.2643 25.9271 19.312 25.9367 19.3575 25.9533C19.3894 25.9661 19.416 25.9894 19.4329 26.0193C19.4563 26.0608 19.4737 26.1052 19.4848 26.1515L20.2539 28.3312L20.9569 26.1043C20.9628 26.0586 20.9826 26.0158 21.0135 25.9816C21.0471 25.9542 21.0882 25.9377 21.1314 25.9344C21.2241 25.9274 21.3171 25.9274 21.4098 25.9344C21.4978 25.9288 21.586 25.9288 21.674 25.9344C21.7286 25.939 21.7808 25.9586 21.825 25.991C21.8412 26.003 21.8544 26.0186 21.8634 26.0367C21.8725 26.0547 21.8771 26.0747 21.8769 26.0948C21.8759 26.1499 21.8647 26.2043 21.8439 26.2552L20.7587 29.4258Z" fill="#003399"/>
<path d="M24.6753 28.3785C24.6743 28.5414 24.6389 28.7021 24.5715 28.8503C24.502 28.9903 24.4001 29.1116 24.2743 29.2042C24.1326 29.3055 23.9722 29.3776 23.8024 29.4165C23.6193 29.465 23.4305 29.4888 23.241 29.4873C23.124 29.4878 23.0072 29.4783 22.8919 29.459C22.7909 29.4468 22.6913 29.4246 22.5946 29.3929C22.5187 29.3702 22.4446 29.3418 22.3729 29.308C22.3273 29.2847 22.2845 29.2562 22.2455 29.2231C22.2131 29.1893 22.1917 29.1465 22.1842 29.1004C22.1742 29.0205 22.1742 28.9397 22.1842 28.8598C22.181 28.8032 22.181 28.7465 22.1842 28.6899C22.1807 28.6554 22.1807 28.6206 22.1842 28.5861C22.1915 28.5655 22.2046 28.5475 22.2219 28.5342H22.2785C22.3204 28.5398 22.3606 28.5543 22.3965 28.5767C22.4484 28.6097 22.5144 28.6427 22.5899 28.6805C22.6789 28.7194 22.7703 28.7524 22.8636 28.7796C22.9784 28.8133 23.0977 28.8292 23.2174 28.8267C23.2921 28.829 23.3667 28.8211 23.4392 28.8032C23.4978 28.7867 23.5535 28.7612 23.6043 28.7277C23.6509 28.6994 23.6885 28.6585 23.7128 28.6097C23.7384 28.5568 23.7514 28.4986 23.7506 28.4399C23.7502 28.3713 23.727 28.3049 23.6845 28.2511C23.6317 28.1971 23.5713 28.151 23.5052 28.1143C23.4227 28.0728 23.3376 28.0365 23.2504 28.0058L22.9626 27.8926C22.8636 27.8501 22.7692 27.8029 22.6748 27.751C22.5811 27.6972 22.4953 27.6305 22.4201 27.5529C22.3432 27.4705 22.2824 27.3745 22.2408 27.2698C22.1948 27.1445 22.1724 27.0117 22.1747 26.8782C22.172 26.7302 22.2026 26.5834 22.2644 26.4489C22.3248 26.3179 22.4154 26.2032 22.5286 26.1139C22.653 26.0148 22.7957 25.9411 22.9485 25.8968C23.1276 25.8438 23.3137 25.8184 23.5005 25.8214C23.5994 25.814 23.6988 25.814 23.7977 25.8214C23.8968 25.8214 23.9817 25.8544 24.0619 25.878L24.2601 25.9487C24.2994 25.968 24.3372 25.9901 24.3733 26.0148C24.3931 26.0299 24.4092 26.0492 24.4205 26.0714C24.4259 26.0931 24.4259 26.1158 24.4205 26.1375C24.4205 26.1611 24.4205 26.1941 24.4205 26.2318C24.4232 26.279 24.4232 26.3262 24.4205 26.3734C24.4232 26.4268 24.4232 26.4803 24.4205 26.5338C24.424 26.5667 24.424 26.5999 24.4205 26.6329C24.4147 26.6516 24.4031 26.6681 24.3875 26.68C24.3704 26.6842 24.3526 26.6842 24.3356 26.68C24.2988 26.6745 24.2635 26.6617 24.2318 26.6423C24.1846 26.614 24.128 26.5904 24.0572 26.5574C23.979 26.525 23.8986 26.4982 23.8166 26.4772C23.7153 26.449 23.6103 26.4362 23.5052 26.4394C23.4333 26.4288 23.3601 26.4288 23.2882 26.4394C23.2337 26.4553 23.1826 26.4809 23.1372 26.5149C23.1001 26.5432 23.0709 26.5806 23.0523 26.6234C23.0335 26.6666 23.0238 26.7132 23.024 26.7602C23.0207 26.8308 23.0443 26.8999 23.09 26.9537C23.1439 27.0073 23.206 27.0519 23.274 27.0858C23.3586 27.1278 23.4452 27.1656 23.5335 27.199L23.826 27.3075C23.9251 27.35 24.0195 27.3972 24.1186 27.4491C24.2134 27.5013 24.2994 27.5682 24.3733 27.6472C24.4515 27.7277 24.514 27.8221 24.5573 27.9256C24.6341 28.0643 24.6746 28.22 24.6753 28.3785Z" fill="#003399"/>
<path d="M30.3425 27.6239C30.3451 27.8879 30.3134 28.1512 30.2481 28.4071C30.193 28.6193 30.0986 28.8194 29.9697 28.9968C29.8577 29.1577 29.7068 29.2875 29.531 29.3743C29.3463 29.4654 29.1424 29.5107 28.9365 29.5064C28.8336 29.507 28.7309 29.4975 28.6298 29.4781C28.5347 29.4547 28.4428 29.4198 28.3562 29.3743C28.2649 29.3259 28.1794 29.2673 28.1014 29.1997C28.0095 29.122 27.9243 29.0368 27.8466 28.9449V29.2799C27.8475 29.3041 27.8391 29.3278 27.823 29.346C27.807 29.3687 27.7837 29.3854 27.757 29.3931C27.7174 29.4074 27.6762 29.4169 27.6343 29.4214H27.2616C27.2198 29.4164 27.1787 29.4069 27.1389 29.3931C27.1134 29.3855 27.0915 29.3687 27.0776 29.346C27.0696 29.3247 27.0696 29.3012 27.0776 29.2799V24.4911C27.0692 24.4699 27.0692 24.4463 27.0776 24.4251C27.0968 24.4036 27.1212 24.3873 27.1484 24.3779C27.1944 24.3625 27.2418 24.3515 27.2899 24.3448H27.5164H27.7381C27.7862 24.3515 27.8336 24.3625 27.8797 24.3779C27.9076 24.3886 27.9333 24.4046 27.9551 24.4251C27.962 24.4465 27.962 24.4696 27.9551 24.4911V26.2934C28.0338 26.2172 28.1173 26.1463 28.2052 26.0811C28.2837 26.0259 28.3675 25.9785 28.4553 25.9395C28.5366 25.9014 28.6221 25.8729 28.71 25.8546C28.802 25.8391 28.8951 25.8313 28.9884 25.831C29.2016 25.8247 29.4129 25.8735 29.6017 25.9726C29.7687 26.0673 29.9097 26.2018 30.0122 26.3642C30.1315 26.532 30.2179 26.7209 30.267 26.9209C30.3201 27.1514 30.3455 27.3874 30.3425 27.6239ZM29.3989 27.6899C29.3976 27.5556 29.3866 27.4216 29.3658 27.2889C29.349 27.1689 29.3123 27.0525 29.2573 26.9445C29.2098 26.8506 29.1422 26.7685 29.0592 26.7039C28.9673 26.6421 28.8584 26.6108 28.7478 26.6142C28.6869 26.6144 28.6265 26.624 28.5685 26.6425C28.5049 26.6619 28.4445 26.6905 28.3892 26.7275C28.3211 26.7764 28.2565 26.83 28.1958 26.8879C28.1224 26.966 28.0531 27.0479 27.9882 27.1332V28.2183C28.0953 28.36 28.2206 28.4869 28.3609 28.5958C28.4668 28.6765 28.5958 28.7211 28.7289 28.7232C28.8382 28.7276 28.9459 28.6961 29.0356 28.6335C29.119 28.5687 29.1894 28.4886 29.2432 28.3976C29.2993 28.2926 29.3391 28.1797 29.3611 28.0627C29.3824 27.9396 29.3919 27.8148 29.3894 27.6899H29.3989Z" fill="#003399"/>
<path d="M32.9274 29.4263L32.5547 30.5775C32.5383 30.6129 32.5133 30.6435 32.482 30.6666C32.4507 30.6897 32.414 30.7045 32.3754 30.7096C32.2348 30.7425 32.0904 30.7568 31.9461 30.7521C31.8691 30.758 31.7918 30.758 31.7149 30.7521C31.6683 30.7474 31.6233 30.733 31.5828 30.7096C31.5697 30.7027 31.5585 30.6925 31.5503 30.6802C31.542 30.6678 31.537 30.6536 31.5356 30.6389C31.5273 30.6032 31.5273 30.566 31.5356 30.5303L31.9744 29.4405C31.9404 29.4226 31.91 29.3986 31.8847 29.3697C31.8615 29.3411 31.8424 29.3093 31.8281 29.2753L30.7005 26.2605C30.6761 26.1985 30.6602 26.1334 30.6533 26.0671C30.6532 26.0467 30.6573 26.0265 30.6655 26.0078C30.6736 25.9892 30.6855 25.9724 30.7005 25.9586C30.7436 25.9282 30.7942 25.9103 30.8468 25.9067C30.9395 25.9007 31.0324 25.9007 31.1251 25.9067H31.3705C31.4188 25.9088 31.4666 25.9183 31.512 25.935C31.5489 25.9373 31.5839 25.9523 31.6111 25.9774C31.6111 26.0105 31.6441 26.0529 31.663 26.1096L32.4273 28.2893L33.1256 26.0624C33.1358 26.018 33.1551 25.9763 33.1822 25.9397C33.2162 25.913 33.2571 25.8967 33.3001 25.8925C33.3944 25.8854 33.489 25.8854 33.5832 25.8925C33.6696 25.8869 33.7563 25.8869 33.8427 25.8925C33.8926 25.9076 33.9369 25.9372 33.9701 25.9774C33.9863 25.9894 33.9995 26.005 34.0085 26.0231C34.0176 26.0411 34.0222 26.0611 34.022 26.0812C34.0206 26.1358 34.0111 26.1899 33.9937 26.2417L32.9274 29.4263Z" fill="#003399"/>
<path d="M38.1643 29.426L37.768 30.5772C37.7524 30.6131 37.7276 30.6442 37.6962 30.6674C37.6647 30.6906 37.6276 30.7051 37.5887 30.7093C37.4497 30.7423 37.3069 30.7566 37.1641 30.7518C37.0856 30.7578 37.0067 30.7578 36.9282 30.7518C36.8825 30.7413 36.8392 30.7221 36.8008 30.6952C36.7884 30.6874 36.7778 30.677 36.7696 30.6648C36.7615 30.6526 36.7561 30.6389 36.7536 30.6244C36.7457 30.5887 36.7457 30.5516 36.7536 30.5159L37.1877 29.426C37.1544 29.4092 37.1253 29.385 37.1028 29.3552C37.0763 29.329 37.0568 29.2966 37.0462 29.2609L35.9421 26.2602C35.9155 26.1989 35.8995 26.1335 35.895 26.0668C35.8939 26.0467 35.8972 26.0267 35.9045 26.008C35.9118 25.9892 35.923 25.9723 35.9374 25.9583C35.9809 25.9287 36.0313 25.9108 36.0837 25.9064C36.1764 25.9005 36.2693 25.9005 36.362 25.9064H36.6121C36.6605 25.9085 36.7082 25.918 36.7536 25.9347C36.7849 25.9486 36.8112 25.9716 36.8291 26.0007C36.8505 26.0431 36.8678 26.0873 36.881 26.1328L37.6501 28.3126L38.3531 26.0857C38.359 26.04 38.3788 25.9972 38.4097 25.963C38.4419 25.9365 38.4813 25.92 38.5229 25.9158C38.6171 25.9087 38.7118 25.9087 38.806 25.9158C38.8924 25.91 38.9791 25.91 39.0655 25.9158C39.1217 25.9195 39.1757 25.9392 39.2212 25.9724C39.2368 25.9846 39.2493 26.0004 39.2576 26.0185C39.2658 26.0366 39.2695 26.0564 39.2683 26.0762C39.267 26.1308 39.2574 26.1849 39.24 26.2366L38.1643 29.426Z" fill="#003399"/>
<path d="M43.0374 27.6377C43.0407 27.8946 43.0057 28.1506 42.9336 28.3973C42.8649 28.6153 42.7507 28.8163 42.5987 28.987C42.4443 29.1559 42.2541 29.2881 42.0419 29.3739C41.5412 29.5405 40.9999 29.5405 40.4991 29.3739C40.2938 29.3014 40.1091 29.18 39.9613 29.0201C39.8139 28.8588 39.7072 28.6647 39.6499 28.4539C39.5762 28.2044 39.5412 27.945 39.5461 27.6849C39.5416 27.426 39.5782 27.168 39.6546 26.9205C39.7202 26.6997 39.8347 26.4966 39.9896 26.3261C40.1487 26.172 40.3383 26.053 40.5463 25.9769C40.7965 25.883 41.0624 25.8382 41.3295 25.8448C41.5877 25.8384 41.845 25.8784 42.0891 25.9628C42.2927 26.0337 42.4758 26.1536 42.6223 26.3119C42.7696 26.4732 42.8764 26.6673 42.9336 26.8781C43.0059 27.1247 43.0409 27.3807 43.0374 27.6377ZM42.0938 27.6707C42.094 27.5221 42.0814 27.3737 42.0561 27.2272C42.0345 27.1021 41.9897 26.9821 41.924 26.8734C41.8661 26.776 41.783 26.6961 41.6834 26.6422C41.5655 26.5812 41.4338 26.5519 41.3012 26.5573C41.1774 26.5539 41.0546 26.5798 40.9426 26.6327C40.8411 26.681 40.7546 26.756 40.6926 26.8498C40.6218 26.9562 40.5707 27.0745 40.5416 27.1989C40.5069 27.3537 40.491 27.5121 40.4944 27.6707C40.494 27.8194 40.5067 27.9678 40.5322 28.1142C40.5552 28.239 40.5999 28.3587 40.6643 28.4681C40.7221 28.5654 40.8053 28.6453 40.9049 28.6992C41.0231 28.7593 41.1546 28.7885 41.2871 28.7842C41.4121 28.7852 41.536 28.7594 41.6503 28.7087C41.7501 28.6577 41.8359 28.5832 41.9004 28.4917C41.9696 28.3849 42.0191 28.2667 42.0467 28.1425C42.0801 27.9876 42.0943 27.8291 42.0891 27.6707H42.0938Z" fill="#003399"/>
<path d="M46.86 29.2805C46.8647 29.3023 46.8647 29.3248 46.86 29.3466C46.8437 29.3682 46.8203 29.3832 46.7939 29.389C46.7565 29.4051 46.7166 29.4147 46.676 29.4173H46.4872H46.2891C46.2484 29.4147 46.2086 29.4051 46.1711 29.389C46.1461 29.383 46.1243 29.3678 46.1098 29.3466C46.1029 29.3251 46.1029 29.302 46.1098 29.2805V28.9031C45.9533 29.0809 45.7664 29.2295 45.5578 29.3419C45.3812 29.4381 45.1833 29.4884 44.9822 29.4881C44.7878 29.4938 44.5946 29.4567 44.416 29.3796C44.2696 29.3121 44.1429 29.2081 44.048 29.0776C43.9507 28.947 43.8816 28.7976 43.8451 28.6389C43.7994 28.4346 43.7788 28.2254 43.7838 28.0161V26.0392C43.7791 26.0175 43.7791 25.995 43.7838 25.9732C43.8046 25.9524 43.8307 25.9377 43.8593 25.9307C43.9048 25.9141 43.9525 25.9045 44.0008 25.9024H44.2226H44.4443C44.4927 25.9045 44.5404 25.9141 44.5859 25.9307C44.6145 25.9377 44.6406 25.9524 44.6614 25.9732C44.6679 25.9947 44.6679 26.0177 44.6614 26.0392V27.8651C44.6569 27.9949 44.668 28.1248 44.6944 28.252C44.7098 28.3355 44.7437 28.4144 44.7935 28.4832C44.8357 28.5477 44.8943 28.5998 44.9633 28.6342C45.0391 28.6733 45.1234 28.6927 45.2087 28.6908C45.3376 28.6854 45.4616 28.6391 45.5625 28.5587C45.7023 28.4512 45.829 28.3277 45.94 28.1907V26.0204C45.9331 25.9989 45.9331 25.9758 45.94 25.9543C45.9607 25.9335 45.9869 25.9188 46.0154 25.9119C46.0594 25.8957 46.1055 25.8861 46.1523 25.8835H46.3787H46.6005C46.6472 25.8861 46.6933 25.8957 46.7373 25.9119C46.7659 25.9188 46.792 25.9335 46.8128 25.9543C46.8194 25.9758 46.8194 25.9988 46.8128 26.0204L46.86 29.2805Z" fill="#003399"/>
<path d="M49.8792 26.3403C49.8792 26.43 49.8792 26.5008 49.8792 26.5574C49.8835 26.6013 49.8835 26.6455 49.8792 26.6895C49.8746 26.7152 49.8613 26.7385 49.8415 26.7555C49.8215 26.7617 49.8001 26.7617 49.7801 26.7555H49.7188L49.6339 26.7272L49.5348 26.6989H49.4121C49.3605 26.6992 49.3094 26.7088 49.2611 26.7272C49.2033 26.7526 49.1493 26.7859 49.1007 26.8263C49.0361 26.8761 48.9789 26.9349 48.9309 27.0009C48.8602 27.0859 48.7955 27.1757 48.7374 27.2698V29.2797C48.744 29.3012 48.744 29.3242 48.7374 29.3457C48.718 29.3683 48.6913 29.3833 48.6619 29.3882C48.618 29.4044 48.5719 29.4139 48.5251 29.4165H48.2987H48.0769C48.0287 29.4135 47.981 29.404 47.9354 29.3882C47.9065 29.382 47.8802 29.3672 47.8599 29.3457C47.853 29.3242 47.853 29.3012 47.8599 29.2797V26.0384C47.855 26.0166 47.855 25.9941 47.8599 25.9723C47.8785 25.9535 47.9011 25.939 47.9259 25.9299C47.9652 25.9145 48.0065 25.9049 48.0486 25.9016H48.2373H48.4308C48.473 25.9038 48.5145 25.9134 48.5534 25.9299C48.5757 25.9388 48.5952 25.9535 48.61 25.9723C48.6169 25.9938 48.6169 26.0169 48.61 26.0384V26.4489C48.6826 26.3424 48.7631 26.2414 48.8507 26.1469C48.9167 26.077 48.9893 26.0138 49.0677 25.9582C49.1288 25.9143 49.1976 25.8823 49.2706 25.8638C49.3382 25.8452 49.408 25.8357 49.4782 25.8355H49.5395H49.6527L49.7518 25.8638L49.8179 25.8968C49.8304 25.9087 49.8401 25.9232 49.8462 25.9393V26.0006C49.8462 26.0006 49.8462 26.062 49.8462 26.1139C49.8462 26.1658 49.8792 26.2554 49.8792 26.3403Z" fill="#003399"/>
<path d="M54.4311 28.3783C54.4323 28.5414 54.3968 28.7026 54.3274 28.8501C54.2582 28.9889 54.1581 29.1099 54.0348 29.204C53.8929 29.3047 53.7326 29.3768 53.563 29.4163C53.3799 29.465 53.1911 29.4888 53.0016 29.487C52.8846 29.4876 52.7678 29.4781 52.6525 29.4587C52.5514 29.4465 52.4519 29.4244 52.3552 29.3927C52.2796 29.3692 52.2055 29.3408 52.1335 29.3078C52.0878 29.2845 52.0451 29.256 52.0061 29.2228C51.9754 29.1879 51.9542 29.1457 51.9447 29.1002C51.9347 29.0203 51.9347 28.9394 51.9447 28.8595C51.9416 28.803 51.9416 28.7463 51.9447 28.6897C51.9409 28.6552 51.9409 28.6204 51.9447 28.5859C51.9505 28.5658 51.962 28.5478 51.9778 28.534H52.0344C52.0765 28.5388 52.1168 28.5534 52.1523 28.5765C52.2162 28.615 52.2824 28.6497 52.3505 28.6803C52.4375 28.7199 52.5274 28.7531 52.6194 28.7793C52.7343 28.8131 52.8536 28.829 52.9733 28.8265C53.0479 28.829 53.1226 28.8211 53.195 28.8029C53.2554 28.7874 53.3128 28.7619 53.3649 28.7274C53.4101 28.6989 53.4461 28.658 53.4687 28.6095C53.4967 28.5574 53.5097 28.4987 53.5064 28.4396C53.5061 28.3711 53.4828 28.3047 53.4404 28.2509C53.3885 28.1958 53.3279 28.1495 53.2611 28.1141C53.1785 28.0725 53.0934 28.0363 53.0063 28.0056L52.7185 27.8923C52.6194 27.8499 52.5251 27.8027 52.4307 27.7508C52.3376 27.6982 52.2532 27.6313 52.1806 27.5527C52.1023 27.4715 52.0413 27.3751 52.0014 27.2696C51.9471 27.1395 51.9192 27 51.9192 26.8591C51.9192 26.7182 51.9471 26.5787 52.0014 26.4486C52.0602 26.318 52.1491 26.2032 52.2609 26.1137C52.3859 26.0156 52.5284 25.9419 52.6808 25.8966C52.8614 25.8433 53.0491 25.8178 53.2375 25.8211C53.3364 25.8141 53.4358 25.8141 53.5347 25.8211C53.6291 25.8211 53.7187 25.8542 53.7942 25.8778C53.8618 25.8968 53.928 25.9204 53.9924 25.9485C54.0317 25.9678 54.0695 25.9899 54.1056 26.0146C54.1266 26.0297 54.1443 26.049 54.1575 26.0712C54.1608 26.0931 54.1608 26.1154 54.1575 26.1372C54.1609 26.1686 54.1609 26.2002 54.1575 26.2316C54.1602 26.2787 54.1602 26.326 54.1575 26.3731C54.1602 26.4266 54.1602 26.4801 54.1575 26.5336C54.161 26.5665 54.161 26.5997 54.1575 26.6326C54.1517 26.6514 54.1401 26.6679 54.1245 26.6798C54.1075 26.6847 54.0895 26.6847 54.0726 26.6798C54.0358 26.6743 54.0005 26.6615 53.9688 26.6421C53.8393 26.5669 53.6994 26.5112 53.5536 26.4769C53.4523 26.4487 53.3473 26.436 53.2422 26.4392C53.1702 26.4289 53.0971 26.4289 53.0252 26.4392C52.972 26.4547 52.9223 26.4803 52.8789 26.5147C52.8393 26.5415 52.8081 26.5792 52.7893 26.6232C52.7705 26.6664 52.7608 26.7129 52.761 26.76C52.759 26.8312 52.7843 26.9004 52.8317 26.9535C52.8829 27.0081 52.9436 27.0529 53.011 27.0856C53.0865 27.1233 53.1762 27.1611 53.2705 27.1988L53.563 27.3073C53.6621 27.3498 53.7612 27.397 53.8555 27.4489C53.9518 27.501 54.0394 27.5679 54.115 27.647C54.1934 27.7264 54.2545 27.8212 54.2943 27.9254C54.3777 28.0623 54.4247 28.2182 54.4311 28.3783Z" fill="#003399"/>
<path d="M56.1164 24.9351C56.1233 25.0034 56.1164 25.0725 56.0961 25.1381C56.0759 25.2037 56.0427 25.2646 55.9985 25.3172C55.8764 25.4033 55.7271 25.4419 55.5786 25.4257C55.4321 25.4439 55.2841 25.4069 55.1634 25.322C55.1205 25.2716 55.0887 25.2129 55.07 25.1495C55.0513 25.0861 55.0462 25.0195 55.0549 24.9539C55.0407 24.8159 55.0795 24.6776 55.1634 24.5671C55.2875 24.4814 55.4381 24.4429 55.588 24.4586C55.7344 24.4413 55.8821 24.4782 56.0032 24.5623C56.0463 24.6136 56.0785 24.6731 56.098 24.7371C56.1175 24.8012 56.1237 24.8685 56.1164 24.9351ZM56.0457 29.2804C56.045 29.3043 56.0367 29.3275 56.0221 29.3464C56.0026 29.369 55.9759 29.384 55.9466 29.3889C55.9011 29.4055 55.8534 29.4151 55.805 29.4172H55.5833H55.3616C55.3132 29.4147 55.2656 29.4052 55.22 29.3889C55.1911 29.3827 55.1648 29.3679 55.1445 29.3464C55.1377 29.3249 55.1377 29.3019 55.1445 29.2804V26.0485C55.137 26.0272 55.137 26.0038 55.1445 25.9825C55.1656 25.961 55.1915 25.9448 55.22 25.9353C55.2659 25.9194 55.3134 25.9083 55.3616 25.9023H55.5833H55.805C55.8533 25.9078 55.9009 25.9188 55.9466 25.9353C55.9757 25.9436 56.0019 25.9599 56.0221 25.9825C56.0374 26.0011 56.0457 26.0244 56.0457 26.0485V29.2804Z" fill="#003399"/>
<path d="M60.0553 29.2799C60.0614 29.3015 60.0614 29.3243 60.0553 29.3459C60.0403 29.3676 60.0188 29.3841 59.994 29.3931C59.9559 29.4069 59.9163 29.4164 59.876 29.4214H59.4986C59.4583 29.4164 59.4188 29.4069 59.3806 29.3931C59.3539 29.3853 59.3306 29.3687 59.3146 29.3459C59.3066 29.3246 59.3066 29.3012 59.3146 29.2799V28.9166C59.1619 29.0837 58.9835 29.2255 58.7862 29.3365C58.5986 29.4399 58.387 29.492 58.1728 29.4875C57.9535 29.4943 57.7361 29.4456 57.5406 29.3459C57.3718 29.2502 57.228 29.116 57.1207 28.9543C57.0085 28.7797 56.9286 28.5864 56.8848 28.3835C56.8367 28.157 56.813 27.9261 56.814 27.6946C56.8088 27.4304 56.8405 27.1668 56.9084 26.9114C56.9613 26.6986 57.0524 26.4972 57.1773 26.317C57.301 26.1552 57.4632 26.0271 57.6491 25.9442C57.8402 25.8521 58.0504 25.8068 58.2625 25.8121C58.4258 25.8136 58.5868 25.8506 58.7343 25.9207C58.899 26.0061 59.0487 26.1176 59.1778 26.2509V24.5052C59.1729 24.4819 59.1729 24.4578 59.1778 24.4345C59.198 24.4119 59.2241 24.3956 59.2533 24.3873C59.2987 24.3707 59.3464 24.3611 59.3948 24.359C59.542 24.3401 59.6911 24.3401 59.8383 24.359C59.8866 24.3615 59.9343 24.371 59.9798 24.3873C60.007 24.3968 60.0314 24.413 60.0506 24.4345C60.0654 24.4552 60.0736 24.4798 60.0742 24.5052L60.0553 29.2799ZM59.14 27.1002C59.0314 26.9582 58.9045 26.8313 58.7626 26.7227C58.6547 26.6384 58.5221 26.592 58.3851 26.5906C58.2745 26.5871 58.1656 26.6185 58.0737 26.6803C57.9846 26.7408 57.913 26.8238 57.8662 26.9209C57.8128 27.0254 57.7731 27.1364 57.7482 27.2511C57.7237 27.3771 57.7111 27.505 57.7105 27.6333C57.7093 27.7661 57.7204 27.8988 57.7435 28.0296C57.7625 28.1491 57.799 28.2652 57.852 28.374C57.8982 28.47 57.966 28.554 58.0502 28.6194C58.1432 28.6824 58.254 28.7138 58.3663 28.709C58.4287 28.7088 58.4907 28.6993 58.5503 28.6807C58.6155 28.6596 58.6774 28.6294 58.7343 28.5911C58.803 28.5448 58.8663 28.491 58.923 28.4306C58.9997 28.3528 59.0721 28.2709 59.14 28.1853V27.1002Z" fill="#003399"/>
<path d="M63.9911 27.5722C63.9997 27.6622 63.9726 27.7521 63.9156 27.8223C63.8894 27.8493 63.8578 27.8704 63.8228 27.8843C63.7878 27.8981 63.7503 27.9043 63.7127 27.9025H61.7264C61.7241 28.0299 61.7399 28.157 61.7736 28.2799C61.8019 28.3879 61.8571 28.4869 61.934 28.5677C62.0102 28.6511 62.1058 28.7143 62.2124 28.7517C62.3428 28.7964 62.4803 28.8172 62.6181 28.813C62.7604 28.8153 62.9026 28.8042 63.0428 28.78C63.1496 28.7595 63.2552 28.7327 63.3589 28.6998C63.4342 28.679 63.5082 28.6538 63.5806 28.6243C63.6252 28.6041 63.6733 28.5929 63.7222 28.5913C63.7407 28.5865 63.7602 28.5865 63.7788 28.5913C63.7788 28.5913 63.7788 28.5913 63.8118 28.6338C63.8241 28.6639 63.8321 28.6957 63.8354 28.7281C63.8354 28.7659 63.8354 28.8178 63.8354 28.8791C63.838 28.9247 63.838 28.9703 63.8354 29.0159C63.8354 29.0537 63.8354 29.0867 63.8354 29.115C63.8304 29.1379 63.8225 29.1601 63.8118 29.1811C63.802 29.2002 63.7892 29.2177 63.7741 29.2329C63.7351 29.265 63.6902 29.2891 63.6419 29.3037C63.5541 29.3375 63.4643 29.3658 63.373 29.3886C63.2645 29.417 63.1371 29.4405 62.9956 29.4641C62.8392 29.4844 62.6815 29.4939 62.5238 29.4924C62.2665 29.4963 62.0101 29.4596 61.7642 29.3839C61.5565 29.32 61.3683 29.2048 61.2169 29.0489C61.0646 28.89 60.9516 28.6978 60.8866 28.4875C60.8121 28.2285 60.7771 27.9596 60.7828 27.6902C60.7793 27.4248 60.8175 27.1605 60.8961 26.907C60.9641 26.6892 61.0748 26.4871 61.2216 26.3125C61.367 26.1528 61.5458 26.0271 61.7453 25.9445C62.2021 25.7762 62.7039 25.7762 63.1607 25.9445C63.3415 26.0186 63.5029 26.1332 63.6325 26.2795C63.7578 26.4287 63.851 26.6021 63.9062 26.789C63.9643 26.9946 63.9929 27.2075 63.9911 27.4212V27.5722ZM63.0994 27.3127C63.1209 27.0978 63.0658 26.8822 62.9437 26.7041C62.8833 26.6271 62.8046 26.5664 62.7148 26.5277C62.625 26.4889 62.5268 26.4734 62.4294 26.4823C62.3248 26.4784 62.2209 26.5012 62.1275 26.5484C62.0417 26.5876 61.9671 26.6476 61.9104 26.723C61.8528 26.8035 61.8082 26.8927 61.7783 26.9872C61.7481 27.0932 61.7307 27.2025 61.7264 27.3127H63.0994Z" fill="#003399"/>
</svg>
