<svg width="16" height="16" viewBox="0 0 16 16" fill="none" xmlns="http://www.w3.org/2000/svg">
<path d="M11.1291 9.87956H10.4707L10.2374 9.65456C11.0541 8.70456 11.5457 7.47122 11.5457 6.12956C11.5457 3.13789 9.12074 0.712891 6.12907 0.712891C3.1374 0.712891 0.712402 3.13789 0.712402 6.12956C0.712402 9.12122 3.1374 11.5462 6.12907 11.5462C7.47074 11.5462 8.70407 11.0546 9.65407 10.2379L9.87907 10.4712V11.1296L14.0457 15.2879L15.2874 14.0462L11.1291 9.87956ZM6.12907 9.87956C4.05407 9.87956 2.37907 8.20456 2.37907 6.12956C2.37907 4.05456 4.05407 2.37956 6.12907 2.37956C8.20407 2.37956 9.87907 4.05456 9.87907 6.12956C9.87907 8.20456 8.20407 9.87956 6.12907 9.87956Z" fill="#898989"/>
</svg>
