<svg xmlns="http://www.w3.org/2000/svg" width="72" height="72" viewBox="0 0 72 72" fill="none">
<g clip-path="url(#clip0_65_21335)">
<path d="M21.2307 33.9077C20.2461 32.9231 18.6461 32.9231 17.6615 33.9077C16.6769 34.8923 16.6769 36.4923 17.6615 37.477L29.2922 49.1077C29.7845 49.6 30.3999 49.8462 31.0769 49.8462C31.1384 49.8462 31.1384 49.8462 31.1999 49.8462C31.8769 49.7847 32.5538 49.477 33.0461 48.9231L62.1538 14.0308C63.0153 12.9847 62.8922 11.3847 61.8461 10.4616C60.7999 9.60004 59.1999 9.72311 58.2769 10.7693L30.8922 43.5693L21.2307 33.9077Z" fill="#9CD65C"/>
<path d="M54.8307 5.72311C40.6769 -3.13843 22.523 -1.04612 10.7076 10.7693C-3.20007 24.677 -3.20007 47.3847 10.7076 61.2923C17.6615 68.2462 26.8307 71.7539 35.9384 71.7539C45.0461 71.7539 54.2153 68.2462 61.1692 61.2923C73.0461 49.4154 75.0769 31.2 66.1538 17.0462C65.4153 15.877 63.8769 15.5077 62.7076 16.2462C61.5384 16.9847 61.1692 18.5231 61.9076 19.6923C69.5999 31.877 67.8153 47.5077 57.5999 57.7231C45.6615 69.6616 26.1538 69.6616 14.2153 57.7231C2.27686 45.7847 2.27686 26.277 14.2153 14.3385C24.4307 4.18465 39.9999 2.40004 52.1845 9.96927C53.3538 10.7077 54.8922 10.3385 55.6307 9.16927C56.3692 8.00004 55.9999 6.46157 54.8307 5.72311Z" fill="#32BCAD"/>
</g>
<defs>
<clipPath id="clip0_65_21335">
<rect width="72" height="72" fill="white"/>
</clipPath>
</defs>
</svg>