<svg width="12" height="13" viewBox="0 0 12 13" fill="none" xmlns="http://www.w3.org/2000/svg">
<mask id="mask0_440_2722" style="mask-type:alpha" maskUnits="userSpaceOnUse" x="0" y="0" width="11" height="11">
<path d="M0.93335 0.868286H10.5253V10.9942H0.93335V0.868286Z" fill="white"/>
</mask>
<g mask="url(#mask0_440_2722)">
<path fill-rule="evenodd" clip-rule="evenodd" d="M7.87738 0.868286C7.87682 1.02158 7.8972 1.1862 7.92283 1.3365H6.43813V8.56541C6.43813 8.89863 6.40317 9.1954 6.33328 9.45572C5.72868 10.7589 4.01682 10.5886 3.54378 9.69437C4.24806 10.1256 5.40606 10.0111 5.88129 8.9875C5.9506 8.72775 5.98555 8.43042 5.98555 8.0972V0.868286H7.87738ZM8.88737 3.05443C9.27006 3.35348 9.79778 3.57399 10.5253 3.61613V4.03144C9.72031 3.88604 9.21007 3.49481 8.88737 3.05443ZM2.09417 10.9942C-0.32828 8.93851 1.2384 4.36167 4.96274 4.93752V5.36139C1.81744 5.21834 0.432927 8.88724 2.09417 10.9942Z" fill="#00F7EF"/>
</g>
<mask id="mask1_440_2722" style="mask-type:alpha" maskUnits="userSpaceOnUse" x="1" y="1" width="11" height="12">
<path d="M1.47705 1.41241H11.0577V12.6H1.47705V1.41241Z" fill="white"/>
</mask>
<g mask="url(#mask1_440_2722)">
<path fill-rule="evenodd" clip-rule="evenodd" d="M8.41239 1.41241V1.42183C8.41295 1.59213 8.46299 4.05426 11.0566 4.20784C11.0566 6.49837 11.0577 4.20784 11.0577 6.11022C10.8629 6.12172 9.3506 6.01286 8.40946 5.17663L8.40655 8.88007C8.42984 10.5571 7.49279 12.2016 5.73851 12.533C5.247 12.6257 4.80446 12.6362 4.06154 12.4745C-0.218201 11.1991 1.20393 4.87537 5.5012 5.55212C5.5012 7.59367 5.50237 5.55155 5.50237 7.59367C3.72715 7.33348 3.13328 8.80473 3.605 9.8582C4.03433 10.8172 5.80191 11.0252 6.41846 9.6722C6.48826 9.40739 6.52318 9.10548 6.52318 8.76649V1.41241H8.41239Z" fill="black"/>
</g>
<path fill-rule="evenodd" clip-rule="evenodd" d="M8.52242 1.40002V1.40945C8.52242 1.50967 8.53976 2.39969 9.05776 3.14964C8.43346 2.63166 8.21081 1.88333 8.13139 1.40002H8.52242ZM10.6309 4.14467C10.7668 4.17062 10.9117 4.18918 11.0655 4.19855C11.0655 6.49162 11.0667 4.19855 11.0667 6.10303C10.8793 6.11455 9.42477 6.00557 8.51961 5.16841L8.51681 8.87596C8.53921 10.5548 7.63798 12.2011 5.95076 12.5329C5.47804 12.6258 5.0524 12.6362 4.33789 12.4744C3.5335 12.2249 2.93946 11.7817 2.53333 11.2358C2.8952 11.5619 3.34944 11.8258 3.90385 11.9981C4.61758 12.1594 5.04338 12.1489 5.51607 12.0561C7.20331 11.7243 8.10452 10.078 8.0827 8.3997L8.08496 4.69156C8.99009 5.52872 10.4446 5.6383 10.6326 5.6261C10.6326 3.85745 10.6309 5.70856 10.6309 4.14467ZM5.28841 5.49915C5.42932 5.50554 5.57427 5.51996 5.72251 5.54431C5.72251 7.58813 5.72364 5.54374 5.72364 7.58813C4.01627 7.32765 3.44511 8.80053 3.8988 9.85517C3.90714 9.87433 3.91615 9.89348 3.92559 9.91201C3.72253 9.78034 3.55923 9.59935 3.46421 9.37832C3.01107 8.32367 3.58162 6.85081 5.28896 7.11127C5.28896 5.23809 5.28841 6.79683 5.28841 5.49915Z" fill="#FF004F"/>
</svg>
