<svg width="9" height="8" viewBox="0 0 9 8" fill="none" xmlns="http://www.w3.org/2000/svg">
<path d="M3.38294 7.35999C6.3568 7.35999 7.98347 4.89705 7.98347 2.75945C7.98347 2.68959 7.98347 2.61919 7.97813 2.54932C8.29361 2.31834 8.56786 2.0358 8.78933 1.71359C8.49314 1.84292 8.17927 1.92723 7.85813 1.96372C8.19564 1.76328 8.44842 1.44659 8.56907 1.07305C8.25867 1.25759 7.90827 1.39305 7.54293 1.46292C7.3916 1.30132 7.20862 1.1726 7.00538 1.08479C6.80214 0.996981 6.583 0.951955 6.3616 0.95252C6.14921 0.95238 5.93887 0.994111 5.74261 1.07533C5.54636 1.15654 5.36804 1.27565 5.21785 1.42584C5.06766 1.57602 4.94856 1.75434 4.86734 1.9506C4.78613 2.14685 4.74439 2.35719 4.74454 2.56959C4.74454 2.69439 4.76 2.81972 4.78507 2.93972C4.14176 2.90715 3.51248 2.73972 2.93805 2.44828C2.36362 2.15684 1.85687 1.7479 1.45067 1.24799C1.31094 1.48799 1.2304 1.76319 1.2304 2.06399C1.23031 2.33042 1.29609 2.59274 1.4219 2.8276C1.5477 3.06246 1.72962 3.26257 1.95147 3.41012C1.69518 3.40035 1.44483 3.33018 1.2208 3.20532V3.22505C1.22026 3.59859 1.34906 3.96079 1.58531 4.25013C1.82157 4.53947 2.1507 4.73809 2.5168 4.81225C2.37798 4.84833 2.23517 4.86678 2.09174 4.86719C1.98938 4.86652 1.88723 4.85814 1.78614 4.84212C1.88997 5.1632 2.0915 5.44384 2.36258 5.64482C2.63365 5.84581 2.96073 5.95711 3.29814 5.96319C2.72566 6.41263 2.01848 6.65612 1.29067 6.65439C1.15574 6.65439 1.0304 6.64905 0.900269 6.63412C1.64063 7.11016 2.50274 7.36222 3.38294 7.35999Z" fill="white"/>
</svg>
