<svg width="18" height="18" viewBox="0 0 18 18" fill="none" xmlns="http://www.w3.org/2000/svg">
<path d="M13.3191 10.343C13.284 10.3262 11.9718 9.68003 11.7386 9.5961C11.6434 9.56192 11.5414 9.52855 11.4329 9.52855C11.2557 9.52855 11.1069 9.61685 10.9909 9.79031C10.8598 9.98515 10.463 10.449 10.3404 10.5876C10.3244 10.6059 10.3025 10.6277 10.2895 10.6277C10.2777 10.6277 10.0746 10.5441 10.0131 10.5174C8.60546 9.9059 7.53697 8.43545 7.39046 8.18749C7.36954 8.15184 7.36866 8.13565 7.36849 8.13565C7.37363 8.11677 7.42097 8.06932 7.4454 8.04483C7.51687 7.97412 7.59431 7.8809 7.66923 7.79073C7.7047 7.74801 7.74023 7.70523 7.77512 7.6649C7.88382 7.53843 7.93221 7.44025 7.98832 7.32653L8.01771 7.26744C8.1547 6.99528 8.0377 6.7656 7.99989 6.69144C7.96886 6.62938 7.41477 5.29212 7.35586 5.15162C7.2142 4.8126 7.02701 4.65475 6.76689 4.65475C6.74275 4.65475 6.76689 4.65475 6.66567 4.65902C6.54242 4.66422 5.87121 4.75258 5.57445 4.93966C5.25974 5.13806 4.72734 5.77052 4.72734 6.88278C4.72734 7.88382 5.3626 8.829 5.63534 9.18847C5.64212 9.19753 5.65457 9.21594 5.67263 9.24236C6.71716 10.7678 8.01929 11.8983 9.33931 12.4256C10.6101 12.9332 11.2119 12.9919 11.554 12.9919C11.6978 12.9919 11.8129 12.9806 11.9144 12.9706L11.9788 12.9645C12.4178 12.9256 13.3826 12.4257 13.602 11.8158C13.7749 11.3355 13.8205 10.8107 13.7055 10.6202C13.6267 10.4907 13.4909 10.4256 13.3191 10.343Z" fill="white"/>
<path d="M9.15977 0C4.2848 0 0.318727 3.93627 0.318727 8.77459C0.318727 10.3395 0.737519 11.8713 1.53086 13.2119L0.012376 17.6912C-0.0159097 17.7747 0.00512929 17.867 0.066902 17.9299C0.111493 17.9755 0.17198 18 0.233753 18C0.257421 18 0.281266 17.9964 0.304525 17.989L4.97517 16.5048C6.25329 17.1877 7.69785 17.5482 9.15982 17.5482C14.0343 17.5482 18 13.6124 18 8.77459C18 3.93627 14.0343 0 9.15977 0ZM9.15977 15.7204C7.78411 15.7204 6.4517 15.3232 5.30636 14.5716C5.26785 14.5463 5.22314 14.5334 5.17814 14.5334C5.15436 14.5334 5.13051 14.537 5.10731 14.5443L2.7676 15.2881L3.5229 13.0598C3.54733 12.9876 3.53512 12.9081 3.49012 12.8466C2.61793 11.6549 2.15689 10.2469 2.15689 8.77459C2.15689 4.94416 5.29836 1.82782 9.15971 1.82782C13.0206 1.82782 16.1617 4.94416 16.1617 8.77459C16.1618 12.6046 13.0207 15.7204 9.15977 15.7204Z" fill="white"/>
</svg>
