<svg width="10" height="7" viewBox="0 0 10 7" fill="none" xmlns="http://www.w3.org/2000/svg">
<path d="M7.66404 6.21494C7.83897 6.19467 8.22457 6.19467 8.56537 5.83947C8.56537 5.83947 8.84057 5.56427 8.92057 4.9488C8.97639 4.49398 9.0063 4.03635 9.01017 3.57814V2.7344C9.0063 2.27619 8.97639 1.81856 8.92057 1.36374C8.84057 0.743469 8.56484 0.473069 8.56484 0.473069C8.22457 0.112536 7.83951 0.112536 7.66351 0.0928029C7.66351 0.0928029 6.41231 0.00213623 4.52537 0.00213623C2.63791 0.00213623 1.38671 0.0928029 1.38671 0.0928029C1.21124 0.112536 0.826172 0.112536 0.485372 0.473069C0.485372 0.473069 0.210173 0.743469 0.130173 1.36374C0.0741779 1.81855 0.0440846 2.27618 0.0400391 2.7344V3.57814C0.0421724 3.7872 0.0539061 4.36747 0.130173 4.9488C0.210173 5.56427 0.485372 5.83947 0.485372 5.83947C0.826172 6.19467 1.27631 6.18454 1.47684 6.21974C1.47684 6.21974 2.19257 6.29014 4.52537 6.3104C6.41231 6.3104 7.66404 6.2144 7.66404 6.2144V6.21494ZM3.59897 4.31787V1.79947L6.02191 3.06614L3.59897 4.31787Z" fill="white"/>
</svg>
