<svg width="11" height="16" viewBox="0 0 11 16" fill="none" xmlns="http://www.w3.org/2000/svg">
<path d="M5 14.2413C5.13333 14.5613 5.31333 14.8613 5.52666 15.1346C5.15333 15.2613 4.75333 15.3346 4.33333 15.3346C2.30666 15.3346 0.666664 13.6946 0.666664 11.668V3.33464C0.666664 1.8613 1.86 0.667969 3.33333 0.667969C4.80666 0.667969 6 1.8613 6 3.33464V9.69463C5.35333 10.2746 4.9 11.0546 4.73333 11.948C4.60666 11.9813 4.47333 12.0013 4.33333 12.0013C3.41333 12.0013 2.66666 11.2546 2.66666 10.3346V4.0013H3.66666V10.3346C3.66666 10.7013 3.96666 11.0013 4.33333 11.0013C4.7 11.0013 5 10.7013 5 10.3346V3.33464C5 2.41464 4.25333 1.66797 3.33333 1.66797C2.41333 1.66797 1.66666 2.41464 1.66666 3.33464V11.668C1.66666 13.1413 2.86 14.3346 4.33333 14.3346C4.56 14.3346 4.78 14.2946 5 14.2413ZM8 4.0013H7V9.03464C7.31333 8.89464 7.64666 8.78797 8 8.72797V4.0013ZM10.2267 10.5613L7.83333 12.9546L6.77333 11.8946L6 12.668L7.83333 14.668L11 11.5013L10.2267 10.5613Z" fill="#ED2324"/>
</svg>
