<svg width="16" height="17" viewBox="0 0 16 17" xmlns="http://www.w3.org/2000/svg">
<path d="M0.5 16.8333L1.75 15.5833L3 16.8333L4.25 15.5833L5.5 16.8333L6.75 15.5833L8 16.8333L9.25 15.5833L10.5 16.8333L11.75 15.5833L13 16.8333L14.25 15.5833L15.5 16.8333V0.166626L14.25 1.41663L13 0.166626L11.75 1.41663L10.5 0.166626L9.25 1.41663L8 0.166626L6.75 1.41663L5.5 0.166626L4.25 1.41663L3 0.166626L1.75 1.41663L0.5 0.166626M13 5.99996H3V4.33329H13M13 9.33329H3V7.66663H13M13 12.6666H3V11H13V12.6666Z"/>
</svg>
