<svg width="16" height="15" viewBox="0 0 16 15" xmlns="http://www.w3.org/2000/svg">
<path d="M13.8333 0H2.16667C1.25 0 0.5 0.75 0.5 1.66667V13.3333C0.5 14.25 1.25 15 2.16667 15H13.8333C14.75 15 15.5 14.25 15.5 13.3333V1.66667C15.5 0.75 14.75 0 13.8333 0ZM3.83333 3.33333H5.5V5H3.83333V3.33333ZM3.83333 6.66667H5.5V8.33333H3.83333V6.66667ZM3.83333 10H5.5V11.6667H3.83333V10ZM12.1667 11.6667H7.16667V10H12.1667V11.6667ZM12.1667 8.33333H7.16667V6.66667H12.1667V8.33333ZM12.1667 5H7.16667V3.33333H12.1667V5Z"/>
</svg>
