<svg xmlns="http://www.w3.org/2000/svg" width="16" height="16" viewBox="0 0 16 16" fill="none">
<path d="M8.99984 14.2398C9.13317 14.5598 9.31317 14.8598 9.5265 15.1332C9.15317 15.2598 8.75317 15.3332 8.33317 15.3332C6.3065 15.3332 4.6665 13.6932 4.6665 11.6665V3.33317C4.6665 1.85984 5.85984 0.666504 7.33317 0.666504C8.8065 0.666504 9.99984 1.85984 9.99984 3.33317V9.69317C9.35317 10.2732 8.89984 11.0532 8.73317 11.9465C8.6065 11.9798 8.47317 11.9998 8.33317 11.9998C7.41317 11.9998 6.6665 11.2532 6.6665 10.3332V3.99984H7.6665V10.3332C7.6665 10.6998 7.9665 10.9998 8.33317 10.9998C8.69984 10.9998 8.99984 10.6998 8.99984 10.3332V3.33317C8.99984 2.41317 8.25317 1.6665 7.33317 1.6665C6.41317 1.6665 5.6665 2.41317 5.6665 3.33317V11.6665C5.6665 13.1398 6.85984 14.3332 8.33317 14.3332C8.55984 14.3332 8.77984 14.2932 8.99984 14.2398ZM11.9998 3.99984H10.9998V9.03317C11.3132 8.89317 11.6465 8.7865 11.9998 8.7265V3.99984ZM14.2265 10.5598L11.8332 12.9532L10.7732 11.8932L9.99984 12.6665L11.8332 14.6665L14.9998 11.4998L14.2265 10.5598Z" fill="#ED2324"/>
</svg>