<svg width="12" height="13" viewBox="0 0 12 13" fill="none" xmlns="http://www.w3.org/2000/svg">
<path d="M2.41333 5.69333C3.37333 7.58 4.92 9.12667 6.80667 10.0867L8.27333 8.62C8.46 8.43333 8.72 8.38 8.95333 8.45333C9.7 8.7 10.5 8.83333 11.3333 8.83333C11.5101 8.83333 11.6797 8.90357 11.8047 9.0286C11.9298 9.15362 12 9.32319 12 9.5V11.8333C12 12.0101 11.9298 12.1797 11.8047 12.3047C11.6797 12.4298 11.5101 12.5 11.3333 12.5C8.32755 12.5 5.44487 11.306 3.31946 9.18054C1.19404 7.05513 0 4.17245 0 1.16667C0 0.989856 0.0702379 0.820286 0.195262 0.695262C0.320286 0.570238 0.489856 0.5 0.666667 0.5H3C3.17681 0.5 3.34638 0.570238 3.4714 0.695262C3.59643 0.820286 3.66667 0.989856 3.66667 1.16667C3.66667 2 3.8 2.8 4.04667 3.54667C4.12 3.78 4.06667 4.04 3.88 4.22667L2.41333 5.69333Z" fill="#898989"/>
</svg>
