<svg width="18" height="15" viewBox="0 0 18 15" xmlns="http://www.w3.org/2000/svg">
<path d="M15.667 14.1667H2.33366C1.89163 14.1667 1.46771 13.9911 1.15515 13.6786C0.842587 13.366 0.666992 12.9421 0.666992 12.5V2.50004C0.666992 2.05801 0.842587 1.63409 1.15515 1.32153C1.46771 1.00897 1.89163 0.833374 2.33366 0.833374H15.667C16.109 0.833374 16.5329 1.00897 16.8455 1.32153C17.1581 1.63409 17.3337 2.05801 17.3337 2.50004V12.5C17.3337 12.9421 17.1581 13.366 16.8455 13.6786C16.5329 13.9911 16.109 14.1667 15.667 14.1667ZM3.16699 8.33337V10H12.3337V8.33337H3.16699ZM3.16699 5.00004V6.66671H14.8337V5.00004H3.16699Z" />
</svg>
