<svg width="18" height="15" viewBox="0 0 18 15" xmlns="http://www.w3.org/2000/svg">
<path d="M0.666504 11.6667H17.3332V15H0.666504V11.6667ZM4.20817 3.33333H6.49984V2.5H3.99984V0H10.6665V2.5H8.1665V3.33333H13.8332C14.6665 3.33333 15.4998 4.16667 15.6665 5L16.0832 10.8333H1.9165L2.37484 5C2.37484 4.16667 3.20817 3.33333 4.20817 3.33333ZM9.83317 5V6.66667H13.9998V5H9.83317ZM3.99984 5V5.83333H5.6665V5H3.99984ZM6.49984 5V5.83333H8.1665V5H6.49984ZM3.99984 6.66667V7.5H5.6665V6.66667H3.99984ZM6.49984 6.66667V7.5H8.1665V6.66667H6.49984ZM3.99984 8.33333V9.16667H5.6665V8.33333H3.99984ZM6.49984 8.33333V9.16667H8.1665V8.33333H6.49984ZM4.83317 0.833333V1.66667H9.83317V0.833333H4.83317Z"/>
</svg>
